<?xml version="1.0" encoding="utf-8"?>
<!-- Generator: Adobe Illustrator 25.2.1, SVG Export Plug-In . SVG Version: 6.00 Build 0)  -->
<svg version="1.1" id="Camada_1" xmlns="http://www.w3.org/2000/svg" xmlns:xlink="http://www.w3.org/1999/xlink" x="0px" y="0px"
	 viewBox="0 0 63 81" style="enable-background:new 0 0 63 81;" xml:space="preserve">
<style type="text/css">
	.st0{fill-rule:evenodd;clip-rule:evenodd;fill:#60DB60;}
	.st1{fill:#40B540;}
	.st2{fill:#FFFFFF;}
	.st3{enable-background:new    ;}
	.st4{fill-rule:evenodd;clip-rule:evenodd;fill:#F27070;}
</style>
<g id="_x31_">
	<g>
		<g>
			<g>
				<polygon class="st0" points="9.5,24.6 53.3,24.6 53.6,56 39.6,70.6 9.5,70.6 				"/>
			</g>
			<g>
				<path class="st1" d="M38.7,71.1H9.4c-0.5,0-1-0.4-1-1V10.9c0-0.5,0.4-1,1-1h44c0.3,0,0.5,0.1,0.7,0.3s0.3,0.4,0.3,0.7l-0.2,44.6
					c0,0.3-0.1,0.5-0.3,0.7L39.4,70.8C39.3,71,39,71.1,38.7,71.1z M10.4,69.2h28l13.9-14.1l0.2-43.2H10.4V69.2z"/>
			</g>
			<g>
				<path class="st1" d="M38.7,71.1c-0.1,0-0.2,0-0.4-0.1c-0.4-0.1-0.6-0.5-0.6-0.9v-7.3c0-5.8,2.5-8.3,8.2-8.3h7.2
					c0.4,0,0.7,0.2,0.9,0.6c0.1,0.4,0.1,0.8-0.2,1L39.4,70.8C39.2,71,39,71.1,38.7,71.1z"/>
			</g>
			<g>
				<path class="st2" d="M26.4,30.4h-7.3c-0.5,0-1-0.4-1-1c0-0.5,0.4-1,1-1h7.3c0.5,0,1,0.4,1,1C27.4,30,26.9,30.4,26.4,30.4z"/>
			</g>
			<g>
				<path class="st2" d="M26.4,34.5h-7.3c-0.5,0-1-0.4-1-1c0-0.5,0.4-1,1-1h7.3c0.5,0,1,0.4,1,1C27.4,34.1,26.9,34.5,26.4,34.5z"/>
			</g>
			<g>
				<path class="st2" d="M22.8,51.6c-0.5,0-1-0.4-1-1V24.3c0-0.5,0.4-1,1-1c0.5,0,1,0.4,1,1v26.3C23.7,51.2,23.3,51.6,22.8,51.6z"/>
			</g>
			<g>
				<path class="st2" d="M26.4,38.6h-7.3c-0.5,0-1-0.4-1-1c0-0.5,0.4-1,1-1h7.3c0.5,0,1,0.4,1,1C27.4,38.1,26.9,38.6,26.4,38.6z"/>
			</g>
			<g>
				<path class="st2" d="M26.4,42.6h-7.3c-0.5,0-1-0.4-1-1c0-0.5,0.4-1,1-1h7.3c0.5,0,1,0.4,1,1C27.4,42.2,26.9,42.6,26.4,42.6z"/>
			</g>
			<g>
				<path class="st2" d="M26.4,46.7h-7.3c-0.5,0-1-0.4-1-1c0-0.5,0.4-1,1-1h7.3c0.5,0,1,0.4,1,1C27.4,46.3,26.9,46.7,26.4,46.7z"/>
			</g>
			<g>
				<path class="st2" d="M22.8,66.4c-1.7,0-3.5-0.8-4.6-2.1c-1-1.2-1.5-2.6-1.3-4.1l1.1-9.7c0.1-0.5,0.5-0.9,1-0.9h7.8
					c0.5,0,0.9,0.4,1,0.9l1.1,9.7c0.2,1.5-0.3,2.9-1.3,4.1C26.2,65.6,24.5,66.4,22.8,66.4z M19.7,51.6l-1,8.8
					c-0.1,0.9,0.2,1.8,0.9,2.6c0.8,0.9,2,1.4,3.2,1.4s2.4-0.5,3.2-1.4c0.7-0.7,1-1.7,0.9-2.6l-1-8.8C25.9,51.6,19.7,51.6,19.7,51.6z
					"/>
			</g>
			<g>
				<path class="st2" d="M22.8,63.3c-1,0-2-0.4-2.6-1.2c-0.5-0.6-0.8-1.4-0.6-2.2l0.3-1.7c0.1-0.5,0.5-0.8,1-0.8h4
					c0.5,0,0.9,0.3,1,0.8l0.3,1.7c0.1,0.8-0.1,1.6-0.6,2.2C24.7,62.8,23.7,63.3,22.8,63.3z M21.6,59.2l-0.1,0.9
					c0,0.3,0.1,0.5,0.2,0.7c0.3,0.3,0.7,0.5,1.1,0.5s0.8-0.2,1.1-0.5c0.1-0.1,0.3-0.4,0.2-0.7L24,59.2H21.6z"/>
			</g>
			<g class="st3">
				<path class="st1" d="M21,22.2c0-0.3,0.1-0.5,0.3-0.7s0.4-0.3,0.7-0.3c0.3,0,0.5,0.1,0.7,0.3s0.3,0.4,0.3,0.7
					c0,0.3-0.1,0.5-0.3,0.6s-0.4,0.2-0.7,0.2c-0.3,0-0.5-0.1-0.7-0.2S21,22.4,21,22.2z"/>
				<path class="st1" d="M26.4,21.6h4.3V23h-6.5v-1l4.2-6.1h-4.2v-1.4h6.4v1L26.4,21.6z"/>
				<path class="st1" d="M33.7,23h-1.8v-8.5h1.8V23z"/>
				<path class="st1" d="M37.1,20v3h-1.8v-8.5h3.3c0.6,0,1.2,0.1,1.7,0.4s0.9,0.6,1.1,1s0.4,0.9,0.4,1.5c0,0.8-0.3,1.5-0.9,2
					S39.6,20,38.6,20H37.1z M37.1,18.6h1.6c0.5,0,0.8-0.1,1.1-0.3s0.4-0.5,0.4-0.9c0-0.4-0.1-0.8-0.4-1s-0.6-0.4-1-0.4h-1.6V18.6z"
					/>
			</g>
		</g>
		<circle class="st4" cx="48.1" cy="64.1" r="6.5"/>
		<g>
			<path class="st2" d="M49,63h2v1.8h-2v2.4h-1.9v-2.4H45V63h2.1v-2.3H49V63z"/>
		</g>
	</g>
</g>
<g id="Layer_1">
</g>
</svg>
