<?xml version="1.0" encoding="utf-8"?>
<!-- Generator: Adobe Illustrator 25.2.1, SVG Export Plug-In . SVG Version: 6.00 Build 0)  -->
<svg version="1.1" id="Camada_1" xmlns="http://www.w3.org/2000/svg" xmlns:xlink="http://www.w3.org/1999/xlink" x="0px" y="0px"
	 viewBox="0 0 63 81" style="enable-background:new 0 0 63 81;" xml:space="preserve">
<style type="text/css">
	.st0{fill-rule:evenodd;clip-rule:evenodd;fill:#60DB60;}
	.st1{fill:#40B540;}
	.st2{enable-background:new    ;}
	.st3{fill:#FFFFFF;}
	.st4{fill-rule:evenodd;clip-rule:evenodd;fill:#F27070;}
</style>
<g id="_x31_">
	<g>
		<g>
			<g>
				<polygon class="st0" points="9.5,24.6 53.3,24.6 53.6,56 39.6,70.6 9.5,70.6 				"/>
			</g>
			<g>
				<path class="st1" d="M38.7,71.1H9.4c-0.5,0-1-0.4-1-1V10.9c0-0.5,0.4-1,1-1h44c0.3,0,0.5,0.1,0.7,0.3s0.3,0.4,0.3,0.7l-0.2,44.6
					c0,0.3-0.1,0.5-0.3,0.7L39.4,70.8C39.3,71,39,71.1,38.7,71.1z M10.4,69.2h28l13.9-14.1l0.2-43.2H10.4V69.2z"/>
			</g>
			<g>
				<path class="st1" d="M38.7,71.1c-0.1,0-0.2,0-0.4-0.1c-0.4-0.1-0.6-0.5-0.6-0.9v-7.3c0-5.8,2.5-8.3,8.2-8.3h7.2
					c0.4,0,0.7,0.2,0.9,0.6c0.1,0.4,0.1,0.8-0.2,1L39.4,70.8C39.2,71,39,71.1,38.7,71.1z"/>
			</g>
			<g class="st2">
				<path class="st1" d="M19.4,22.1c0-0.3,0.1-0.5,0.3-0.7s0.4-0.3,0.7-0.3c0.3,0,0.5,0.1,0.7,0.3s0.3,0.4,0.3,0.7
					c0,0.3-0.1,0.5-0.3,0.6S20.6,23,20.3,23c-0.3,0-0.5-0.1-0.7-0.2S19.4,22.4,19.4,22.1z"/>
				<path class="st1" d="M24.6,19.9v3h-1.8v-8.5h3.3c0.6,0,1.2,0.1,1.7,0.4s0.9,0.6,1.1,1s0.4,0.9,0.4,1.5c0,0.8-0.3,1.5-0.9,2
					s-1.4,0.7-2.4,0.7H24.6z M24.6,18.5h1.6c0.5,0,0.8-0.1,1.1-0.3s0.4-0.5,0.4-0.9c0-0.4-0.1-0.8-0.4-1s-0.6-0.4-1-0.4h-1.6V18.5z"
					/>
				<path class="st1" d="M30.6,22.9v-8.5h2.6c0.8,0,1.4,0.2,2,0.5s1.1,0.8,1.4,1.4s0.5,1.3,0.5,2.1v0.4c0,0.8-0.2,1.5-0.5,2.1
					s-0.8,1.1-1.4,1.4s-1.3,0.5-2,0.5H30.6z M32.4,15.8v5.7h0.8c0.7,0,1.2-0.2,1.6-0.7s0.5-1.1,0.6-1.9v-0.5c0-0.9-0.2-1.5-0.5-2
					s-0.9-0.7-1.6-0.7H32.4z"/>
				<path class="st1" d="M43.5,19.4h-3.4v3.5h-1.8v-8.5H44v1.4h-3.8V18h3.4V19.4z"/>
			</g>
			<g>
				<path class="st3" d="M40.1,47.4c-0.9,0-2.1,0.1-3.4,0.4c-1.9-2-3.8-4.9-5.1-7.7c1.3-5.8,0.7-6.6,0.4-6.9
					c-0.3-0.4-0.8-1.1-1.3-1.1c-0.2,0-0.8,0.1-1,0.2c-0.6,0.2-0.9,0.7-1.2,1.2c-0.7,1.7,0.3,4.6,1.3,6.8c-0.9,3.5-2.3,7.6-3.8,11
					c-3.8,1.8-5.9,3.5-6,5.2c-0.1,0.6,0.1,1.5,1.1,2.3c0.3,0.2,0.6,0.3,1,0.3c0.9,0,1.8-0.7,2.8-2.2c0.7-1.1,1.6-2.5,2.4-4.3
					c2.7-1.2,6.1-2.3,8.9-2.9c1.6,1.5,3,2.3,4.3,2.3c0.9,0,1.7-0.4,2.2-1.2c0.6-0.8,0.7-1.6,0.4-2.2C42.6,47.8,41.7,47.4,40.1,47.4
					L40.1,47.4z M22,57.3c-0.5-0.4-0.4-0.6-0.4-0.7c0.1-0.6,0.9-1.6,3.1-2.8C23,56.8,22.1,57.2,22,57.3L22,57.3z M30.3,33.9
					c0.1,0,1.1,1.1,0.1,3.3C28.9,35.6,30.2,33.9,30.3,33.9L30.3,33.9z M28.2,50.2c1-2.5,2-5.2,2.7-7.7c1.1,2.1,2.5,4.1,3.9,5.7
					C32.6,48.7,30.3,49.4,28.2,50.2L28.2,50.2z M41.2,49.7c-0.3,0.4-1,0.4-1.2,0.4c-0.5,0-0.7-0.3-1.6-1c0.7-0.1,1.3-0.1,1.8-0.1
					c0.9,0,1,0.1,1.2,0.2C41.4,49.4,41.4,49.5,41.2,49.7L41.2,49.7z"/>
			</g>
		</g>
		<circle class="st4" cx="48.1" cy="64.1" r="6.5"/>
		<g>
			<path class="st3" d="M49,63h2v1.8h-2v2.4h-1.9v-2.4H45V63h2.1v-2.3H49V63z"/>
		</g>
	</g>
</g>
<g id="Layer_1">
</g>
</svg>
