<?xml version="1.0" encoding="utf-8"?>
<!-- Generator: Adobe Illustrator 25.2.1, SVG Export Plug-In . SVG Version: 6.00 Build 0)  -->
<svg version="1.1" id="Camada_1" xmlns="http://www.w3.org/2000/svg" xmlns:xlink="http://www.w3.org/1999/xlink" x="0px" y="0px"
	 viewBox="0 0 63 81" style="enable-background:new 0 0 63 81;" xml:space="preserve">
<style type="text/css">
	.st0{fill-rule:evenodd;clip-rule:evenodd;fill:#60DB60;}
	.st1{fill:#40B540;}
	.st2{fill:#FFFFFF;}
	.st3{enable-background:new    ;}
	.st4{fill-rule:evenodd;clip-rule:evenodd;fill:#F27070;}
</style>
<g id="_x31_">
	<g>
		<g>
			<g>
				<polygon class="st0" points="9.5,24.6 53.3,24.6 53.6,56 39.6,70.6 9.5,70.6 				"/>
			</g>
			<g>
				<path class="st1" d="M38.7,71.1H9.4c-0.5,0-1-0.4-1-1V10.9c0-0.5,0.4-1,1-1h44c0.3,0,0.5,0.1,0.7,0.3s0.3,0.4,0.3,0.7l-0.2,44.6
					c0,0.3-0.1,0.5-0.3,0.7L39.4,70.8C39.3,71,39,71.1,38.7,71.1z M10.4,69.2h28l13.9-14.1l0.2-43.2H10.4V69.2z"/>
			</g>
			<g>
				<path class="st1" d="M38.7,71.1c-0.1,0-0.2,0-0.4-0.1c-0.4-0.1-0.6-0.5-0.6-0.9v-7.3c0-5.8,2.5-8.3,8.2-8.3h7.2
					c0.4,0,0.7,0.2,0.9,0.6c0.1,0.4,0.1,0.8-0.2,1L39.4,70.8C39.2,71,39,71.1,38.7,71.1z"/>
			</g>
			<g>
				<path class="st2" d="M46.7,35.4H37c-0.5,0-1-0.4-1-1c0-0.5,0.4-1,1-1h9.7c0.5,0,1,0.4,1,1C47.6,35,47.2,35.4,46.7,35.4z"/>
			</g>
			<g>
				<path class="st2" d="M46.7,42.2H17.3c-0.5,0-1-0.4-1-1c0-0.5,0.4-1,1-1h29.3c0.5,0,1,0.4,1,1S47.2,42.2,46.7,42.2z"/>
			</g>
			<g>
				<path class="st2" d="M46.7,49H28.8c-0.5,0-1-0.4-1-1c0-0.5,0.4-1,1-1h17.9c0.5,0,1,0.4,1,1C47.6,48.6,47.2,49,46.7,49z"/>
			</g>
			<g>
				<path class="st2" d="M32,55.8H17.3c-0.5,0-1-0.4-1-1c0-0.5,0.4-1,1-1H32c0.5,0,1,0.4,1,1C33,55.4,32.5,55.8,32,55.8z"/>
			</g>
			<g>
				<path class="st2" d="M30.7,35.4H17.3c-0.5,0-1-0.4-1-1c0-0.5,0.4-1,1-1h13.4c0.5,0,1,0.4,1,1C31.7,35,31.3,35.4,30.7,35.4z"/>
			</g>
			<g>
				<path class="st2" d="M24.6,49h-7.2c-0.5,0-1-0.4-1-1c0-0.5,0.4-1,1-1h7.2c0.5,0,1,0.4,1,1C25.5,48.6,25.1,49,24.6,49z"/>
			</g>
			<g class="st3">
				<path class="st1" d="M15.9,22c0-0.3,0.1-0.5,0.3-0.7s0.4-0.3,0.7-0.3c0.3,0,0.5,0.1,0.7,0.3s0.3,0.4,0.3,0.7
					c0,0.3-0.1,0.5-0.3,0.6s-0.4,0.2-0.7,0.2c-0.3,0-0.5-0.1-0.7-0.2S15.9,22.2,15.9,22z"/>
				<path class="st1" d="M22.6,20.7l1.9-6.4h2l-3,8.5h-1.8l-3-8.5h2L22.6,20.7z"/>
				<path class="st1" d="M32.4,19.1H29v2.3h4v1.4h-5.7v-8.5H33v1.4H29v2h3.4V19.1z"/>
				<path class="st1" d="M35.8,21.4h3.7v1.4H34v-8.5h1.8V21.4z"/>
				<path class="st1" d="M47.1,18.7c0,0.8-0.1,1.6-0.4,2.2S46,22,45.4,22.4s-1.2,0.5-1.9,0.5c-0.7,0-1.3-0.2-1.9-0.5s-1-0.8-1.3-1.5
					s-0.5-1.4-0.5-2.2v-0.4c0-0.8,0.2-1.6,0.5-2.2s0.7-1.1,1.3-1.5s1.2-0.5,1.9-0.5s1.3,0.2,1.9,0.5s1,0.8,1.3,1.5s0.5,1.4,0.5,2.2
					V18.7z M45.4,18.3c0-0.9-0.2-1.6-0.5-2s-0.8-0.7-1.4-0.7c-0.6,0-1,0.2-1.4,0.7s-0.5,1.1-0.5,2v0.4c0,0.9,0.2,1.5,0.5,2
					s0.8,0.7,1.4,0.7c0.6,0,1-0.2,1.4-0.7s0.5-1.1,0.5-2V18.3z"/>
			</g>
		</g>
		<circle class="st4" cx="48.1" cy="64.1" r="6.5"/>
		<g>
			<path class="st2" d="M49,63h2v1.8h-2v2.4h-1.9v-2.4H45V63h2.1v-2.3H49V63z"/>
		</g>
	</g>
</g>
<g id="Layer_1">
</g>
</svg>
