<?xml version="1.0" encoding="utf-8"?>
<!-- Generator: Adobe Illustrator 25.2.1, SVG Export Plug-In . SVG Version: 6.00 Build 0)  -->
<svg version="1.1" id="Camada_1" xmlns="http://www.w3.org/2000/svg" xmlns:xlink="http://www.w3.org/1999/xlink" x="0px" y="0px"
	 viewBox="0 0 63 81" style="enable-background:new 0 0 63 81;" xml:space="preserve">
<style type="text/css">
	.st0{fill-rule:evenodd;clip-rule:evenodd;fill:#60DB60;}
	.st1{fill:#40B540;}
	.st2{fill:#FFFFFF;}
	.st3{enable-background:new    ;}
	.st4{fill-rule:evenodd;clip-rule:evenodd;fill:#F27070;}
</style>
<g id="_x31_">
	<g>
		<g>
			<g>
				<polygon class="st0" points="9.5,24.6 53.3,24.6 53.6,56 39.6,70.6 9.5,70.6 				"/>
			</g>
			<g>
				<path class="st1" d="M38.7,71.1H9.4c-0.5,0-1-0.4-1-1V10.9c0-0.5,0.4-1,1-1h44c0.3,0,0.5,0.1,0.7,0.3s0.3,0.4,0.3,0.7l-0.2,44.6
					c0,0.3-0.1,0.5-0.3,0.7L39.4,70.8C39.3,71,39,71.1,38.7,71.1z M10.4,69.2h28l13.9-14.1l0.2-43.2H10.4V69.2z"/>
			</g>
			<g>
				<path class="st1" d="M38.7,71.1c-0.1,0-0.2,0-0.4-0.1c-0.4-0.1-0.6-0.5-0.6-0.9v-7.3c0-5.8,2.5-8.3,8.2-8.3h7.2
					c0.4,0,0.7,0.2,0.9,0.6c0.1,0.4,0.1,0.8-0.2,1L39.4,70.8C39.2,71,39,71.1,38.7,71.1z"/>
			</g>
			<g>
				<g>
					<path class="st2" d="M17.3,38.9c-2.5,0-4.5-2.1-4.5-4.6s2-4.6,4.5-4.6s4.6,2,4.6,4.6S19.8,38.9,17.3,38.9z M17.3,31.7
						c-1.4,0-2.6,1.2-2.6,2.6c0,1.5,1.2,2.7,2.6,2.7s2.6-1.2,2.6-2.7C20,32.9,18.8,31.7,17.3,31.7z"/>
				</g>
				<g>
					<path class="st2" d="M49.2,52.4H13.9c-0.4,0-0.7-0.2-0.9-0.6c-0.2-0.3-0.1-0.7,0.1-1l11.7-14.2c0.3-0.4,0.9-0.5,1.3-0.2L31,40
						l10.1-8.9c0.2-0.2,0.5-0.3,0.7-0.2c0.3,0,0.5,0.1,0.7,0.3l7.5,8.9c0.1,0.2,0.2,0.4,0.2,0.6v10.6c0,0.3-0.1,0.5-0.3,0.7
						C49.7,52.3,49.5,52.4,49.2,52.4z M15.9,50.5h32.3v-9.3l-6.6-7.9L31.7,42c-0.3,0.3-0.8,0.3-1.2,0.1l-4.7-3.5L15.9,50.5z"/>
				</g>
				<g class="st3">
					<path class="st1" d="M15.7,22.1c0-0.3,0.1-0.5,0.3-0.7s0.4-0.3,0.7-0.3c0.3,0,0.5,0.1,0.7,0.3s0.3,0.4,0.3,0.7
						c0,0.3-0.1,0.5-0.3,0.6S16.9,23,16.7,23c-0.3,0-0.5-0.1-0.7-0.2S15.7,22.4,15.7,22.1z"/>
					<path class="st1" d="M22.6,14.4h1.8v5.9c0,0.5-0.1,1-0.4,1.4s-0.6,0.7-1,1S22.1,23,21.5,23c-0.9,0-1.6-0.2-2.1-0.7
						s-0.8-1.1-0.8-1.9h1.8c0,0.4,0.1,0.7,0.3,0.9s0.5,0.3,0.8,0.3c0.3,0,0.6-0.1,0.8-0.3s0.3-0.6,0.3-1V14.4z"/>
					<path class="st1" d="M27.7,19.9v3h-1.8v-8.5h3.3c0.6,0,1.2,0.1,1.7,0.4s0.9,0.6,1.1,1s0.4,0.9,0.4,1.5c0,0.8-0.3,1.5-0.9,2
						s-1.4,0.7-2.4,0.7H27.7z M27.7,18.5h1.6c0.5,0,0.8-0.1,1.1-0.3s0.4-0.5,0.4-0.9c0-0.4-0.1-0.8-0.4-1s-0.6-0.4-1-0.4h-1.6V18.5z
						"/>
					<path class="st1" d="M38.8,19.2h-3.4v2.3h4v1.4h-5.7v-8.5h5.7v1.4h-3.9v2h3.4V19.2z"/>
					<path class="st1" d="M47.2,21.9c-0.3,0.4-0.8,0.7-1.3,0.9S44.6,23,43.9,23c-0.7,0-1.4-0.2-1.9-0.5s-1-0.8-1.3-1.4
						s-0.5-1.3-0.5-2.2v-0.6c0-0.9,0.1-1.6,0.4-2.2s0.7-1.1,1.2-1.4s1.2-0.5,1.9-0.5c1,0,1.8,0.2,2.4,0.7s0.9,1.2,1,2.1h-1.7
						c-0.1-0.5-0.3-0.8-0.5-1.1s-0.6-0.3-1.1-0.3c-0.6,0-1.1,0.2-1.4,0.7s-0.5,1.1-0.5,2v0.5c0,0.9,0.2,1.6,0.5,2s0.8,0.7,1.5,0.7
						c0.7,0,1.1-0.1,1.4-0.4v-1.5h-1.6v-1.3h3.4V21.9z"/>
				</g>
			</g>
		</g>
		<circle class="st4" cx="48.1" cy="64.1" r="6.5"/>
		<g>
			<path class="st2" d="M49,63h2v1.8h-2v2.4h-1.9v-2.4H45V63h2.1v-2.3H49V63z"/>
		</g>
	</g>
</g>
<g id="Layer_1">
</g>
</svg>
