<svg xmlns="http://www.w3.org/2000/svg" width="243.597" height="238.501" viewBox="0 0 243.597 238.501">
  <path id="Caminho_117" data-name="Caminho 117" d="M574.056,353.634c.092-.65.166-1.31.24-1.96.018-.1.027-.19.037-.289q.4-3.563.581-7.2.761,3.13,1.375,6.287c-.027.307-.055.605-.092.912-.009.1-.018.19-.037.289-.074.65-.148,1.31-.24,1.96-.258,2.014-.572,4-.941,5.98-.009-.081-.019-.154-.027-.235-.259-1.906-.554-3.8-.9-5.7a.08.08,0,0,0,.009-.045ZM443.861,219.706c.665-.063,1.338-.117,2-.163.1-.009.194-.009.3-.018,2.953-.217,5.942-.325,8.951-.325a123.026,123.026,0,0,1,90.357,39.3,117.672,117.672,0,0,1,30.822,91.969c-.027.307-.055.605-.092.912-.009.1-.018.19-.037.289-.074.65-.148,1.31-.24,1.96-.258,2.014-.572,4-.941,5.98-7.448,39.844-34.968,73.3-73.144,88.927-1.919.777-3.857,1.518-5.822,2.2-1.292.461-2.583.885-3.893,1.292-.941.3-1.892.578-2.842.849-1.347.388-2.713.759-4.088,1.1a123.349,123.349,0,0,1-99.3-17.505h-.01a118.467,118.467,0,0,1-52.567-98.041c0-62.037,48.645-113.153,110.55-118.726ZM386.681,434.82A120.622,120.622,0,0,0,418.3,450.2a122.645,122.645,0,0,0,65.587,2.231q2.436-.583,4.835-1.274,2.367-.677,4.687-1.436c1.264-.425,2.528-.858,3.783-1.319,1.31-.488,2.6-.994,3.894-1.518,39.542-16.131,67.333-51.636,72.959-93.208a.081.081,0,0,0,.009-.045c.092-.65.166-1.31.24-1.96.018-.1.027-.19.037-.289q.4-3.563.581-7.2.152-2.859.148-5.754c-.072-64.823-53.734-117.354-119.953-117.425-3.008,0-6,.108-8.95.325l-.3.027c-.665.045-1.338.1-2,.163-60.89,5.564-108.7,55.867-108.7,116.91a116.642,116.642,0,0,0,51.511,96.379Zm110.513,13.585c1.31-.488,2.6-.994,3.894-1.518,39.542-16.131,67.333-51.636,72.959-93.208.351,1.9.646,3.794.9,5.7.009.081.018.154.028.235-7.448,39.844-34.968,73.3-73.144,88.927-1.919.777-3.857,1.518-5.822,2.2C496.419,449.968,496.816,449.191,497.194,448.405ZM446.159,219.526c2.953-.217,5.942-.325,8.951-.325a123.026,123.026,0,0,1,90.357,39.3,117.672,117.672,0,0,1,30.822,91.969c-.027.307-.055.605-.092.912-.009.1-.018.19-.037.289H574.3c.019-.1.028-.19.037-.289q.4-3.563.581-7.2.152-2.859.148-5.754c-.072-64.823-53.735-117.354-119.953-117.425-3.008,0-6,.108-8.951.325l-.3.027v-1.816C445.965,219.535,446.057,219.535,446.159,219.526Z" transform="translate(-333.311 -219.201)" fill="#3f3d56"/>
</svg>
