<svg xmlns="http://www.w3.org/2000/svg" width="637.905" height="337.696" viewBox="0 0 637.905 337.696">
  <g id="Grupo_86" data-name="Grupo 86" transform="translate(-1175.446 -473.267)">
    <path id="Caminho_101" data-name="Caminho 101" d="M408.757,238.58c8.8,29.883,34.493,50.8,61.295,68.572q5.613,3.722,11.23,7.274c.025.011.051.034.077.045.18.113.361.227.529.341q1.159.732,2.312,1.458l-.421.185s-.413.215.039.034c.135-.055.276-.1.41-.16,15.57-6.147,31.417-12.748,43.349-24.264,12.378-11.959,19.611-30.715,12.909-46.425a29.815,29.815,0,0,0-3.318-5.829c-.544-.762-1.129-1.491-1.739-2.206A33.223,33.223,0,0,0,504.3,226.323a32.655,32.655,0,0,0-25.282,21.052c-1.969-17.947,13.148-32.98,27.7-44.072s31.092-23.16,33.906-41.008c1.571-9.93-1.956-19.553-8.382-27.278-.2-.235-.4-.469-.6-.7a48.24,48.24,0,0,0-30.807-16.179c-22.317-2.271-44,9.293-60.208,24.484C414.528,167.064,398.754,204.6,408.757,238.58Z" transform="translate(769.724 378.884)" fill="#f2f2f2"/>
    <path id="Caminho_102" data-name="Caminho 102" d="M421.208,192.347a78.964,78.964,0,0,0-9.762,21.076A67.879,67.879,0,0,0,409,233.878c.4,14.182,4.859,28.04,11.872,40.383a127.965,127.965,0,0,0,19.681,25.745q5.613,3.723,11.23,7.274c.025.011.052.034.077.045.18.113.361.227.529.341.773.488,1.546.976,2.312,1.458,0,0-.834.4-.382.22.135-.055.276-.1.41-.16A69.783,69.783,0,0,1,477.806,248.4a73.234,73.234,0,0,1,29.863-15.732c-.544-.762-1.129-1.491-1.739-2.206a76.421,76.421,0,0,0-12.448,4.611,72.232,72.232,0,0,0-41.635,72.115c-.64-.568-1.28-1.147-1.9-1.722-11.832-10.8-22.34-23.193-29.452-37.5a81.106,81.106,0,0,1-8.831-39.058c.58-14.754,6.586-28.421,15.28-40.318,9.314-12.733,20.991-24,33.46-33.757a201.351,201.351,0,0,1,41.614-25.15,1.4,1.4,0,0,0,.726-1.812,1.208,1.208,0,0,0-.6-.7,1.089,1.089,0,0,0-.927.039c-1.836.827-3.659,1.666-5.467,2.541a203.291,203.291,0,0,0-41.911,27.064C441.5,167.112,429.886,178.875,421.208,192.347Z" transform="translate(799.222 386.03)" fill="#fff"/>
    <rect id="Retângulo_294" data-name="Retângulo 294" width="500.402" height="1.963" transform="translate(1311.945 500.799)" fill="#3f3d56"/>
    <ellipse id="Elipse_32" data-name="Elipse 32" cx="6.017" cy="5.89" rx="6.017" ry="5.89" transform="translate(1789.283 482.107)" fill="#3f3d56"/>
    <ellipse id="Elipse_33" data-name="Elipse 33" cx="6.017" cy="5.89" rx="6.017" ry="5.89" transform="translate(1771.985 482.107)" fill="#3f3d56"/>
    <ellipse id="Elipse_34" data-name="Elipse 34" cx="6.017" cy="5.89" rx="6.017" ry="5.89" transform="translate(1754.686 482.107)" fill="#3f3d56"/>
    <path id="Caminho_110" data-name="Caminho 110" d="M192.538,189.868h284.01a6.3,6.3,0,1,0,0-12.6H192.538a6.3,6.3,0,1,0,0,12.6Z" transform="translate(1227.781 424.871)" fill="#ccc"/>
    <path id="Caminho_111" data-name="Caminho 111" d="M192.538,228.049h284.01a6.3,6.3,0,1,0,0-12.6H192.538a6.3,6.3,0,1,0,0,12.6Z" transform="translate(1227.781 454.425)" fill="#e6e6e6"/>
    <path id="Caminho_112" data-name="Caminho 112" d="M192.538,242.7h284.01a6.3,6.3,0,1,0,0-12.6H192.538a6.3,6.3,0,1,0,0,12.6Z" transform="translate(1227.781 465.765)" fill="#e6e6e6"/>
    <path id="Caminho_113" data-name="Caminho 113" d="M218.066,174.774H409.551a6.3,6.3,0,1,0,0-12.6H218.066a6.3,6.3,0,1,0,0,12.6Z" transform="translate(1248.515 413.188)" fill="#ccc"/>
    <path id="Caminho_114" data-name="Caminho 114" d="M192.738,213.4H292.5a6.3,6.3,0,1,0,0-12.6H192.738a6.3,6.3,0,1,0,0,12.6Z" transform="translate(1411.464 443.084)" fill="#e6e6e6"/>
    <path id="Caminho_115" data-name="Caminho 115" d="M294.406,213.4h99.766a6.3,6.3,0,1,0,0-12.6H294.406a6.3,6.3,0,1,0,0,12.6Z" transform="translate(1125.552 443.084)" fill="#e6e6e6"/>
    <path id="Caminho_116" data-name="Caminho 116" d="M136.517,104.625H624.891A6.95,6.95,0,0,1,631.9,111.5V435.456a6.949,6.949,0,0,1-7.013,6.865H259.69c.092-.65.166-1.31.24-1.96H624.891a4.963,4.963,0,0,0,5.011-4.9V111.5a4.971,4.971,0,0,0-5.011-4.914H136.517a4.973,4.973,0,0,0-5.02,4.914V310.046c-.664.045-1.338.1-2,.163V111.5a6.953,6.953,0,0,1,7.022-6.874Z" transform="translate(1181.446 368.643)" fill="#3f3d56"/>
  </g>
</svg>
