<svg xmlns="http://www.w3.org/2000/svg" width="134.107" height="205.371" viewBox="0 0 134.107 205.371">
  <g id="tiazinha" transform="translate(-77.522 -236.355)">
    <ellipse id="Elipse_35" data-name="Elipse 35" cx="32.638" cy="31.95" rx="32.638" ry="31.95" transform="translate(114.004 251.404)" fill="#2f2e41"/>
    <path id="Caminho_120" data-name="Caminho 120" d="M13.269,20.063c7.38-.079,13.411-4.629,13.47-10.165S20.863-.061,13.483.018.072,4.647.013,10.183,5.889,20.141,13.269,20.063Z" transform="translate(181.635 275.674) rotate(-135)" fill="#2f2e41"/>
    <path id="Caminho_121" data-name="Caminho 121" d="M9.858,26.932c5.494-.043,9.994-6.1,10.051-13.538S15.558-.033,10.064.009.07,6.113.013,13.548,4.364,26.974,9.858,26.932Z" transform="translate(116.567 265.244) rotate(-113.131)" fill="#2f2e41"/>
    <path id="Caminho_122" data-name="Caminho 122" d="M408.912,371a122.32,122.32,0,0,0,17.716,10l.914-1.581,8.747-15.03.766-1.319,4.475-7.687.009-.009,14.127-24.3,7.261-12.474-21.564-14.8-8.388,17.361-4.549,9.43-18.722,38.759Z" transform="translate(-331.39 49.539)" fill="#a0616a"/>
    <path id="Caminho_123" data-name="Caminho 123" d="M364.717,311.7l6.293,13.91,1.366,3.026,23.3,51.523.747,1.653a121.906,121.906,0,0,0,18.159-9.25l-.628-1.734-19.017-52.525-4.669-12.9-10.224,2.52Z" transform="translate(-202.951 50.789)" fill="#a0616a"/>
    <path id="Caminho_124" data-name="Caminho 124" d="M27.035,55.16a28.009,28.009,0,0,0,27.5-27.81A26.823,26.823,0,0,0,27.526.03a28.009,28.009,0,0,0-27.5,27.81A26.823,26.823,0,0,0,27.035,55.16Z" transform="translate(134.48 328.158) rotate(-118.663)" fill="#a0616a"/>
    <path id="Caminho_125" data-name="Caminho 125" d="M380.772,330.4a58.559,58.559,0,0,1,19.524-37.5,16.615,16.615,0,0,1,10.981-4.11H450.3a16.491,16.491,0,0,1,14,7.619,15.77,15.77,0,0,1,.7,15.667l-4.457,8.725-9.033,17.686-2.168,4.236-9.661,18.924-.766,1.5L389.87,376.345l-.212-.461c-.185-.407-.369-.8-.544-1.2-.268-.605-.535-1.193-.785-1.788-4.946-11.481-7.28-21.7-7.843-30.693A66.888,66.888,0,0,1,380.772,330.4Z" transform="translate(-283.448 37.922)" fill="#40b540"/>
    <path id="Caminho_126" data-name="Caminho 126" d="M382.148,292.182a15.211,15.211,0,0,1,20.013,7.045l3.479,5.14,11.626,17.18a5.228,5.228,0,0,1,.7,4.378,5.356,5.356,0,0,1-2.926,3.381l-.683.316L391.8,339.956l-1.605.732a5.314,5.314,0,0,1-1.928.479,5.418,5.418,0,0,1-2.6-.443,5.347,5.347,0,0,1-2.981-3.324l-7.806-25.572A14.657,14.657,0,0,1,382.148,292.182Z" transform="translate(-222.375 39.471)" fill="#40b540"/>
    <path id="Caminho_127" data-name="Caminho 127" d="M381.888,342.994a4.889,4.889,0,0,1,.784-1.563,20.9,20.9,0,0,1,4.475-4.336l.009-.009c5.933-4.4,17.744-9.539,40.526-9.674h.037a5.449,5.449,0,0,1,4.955,3.116l.563,1.211,3.626,7.8a4.091,4.091,0,0,0,1.411,1.671A53.343,53.343,0,0,1,457.366,367.4c.194.56.378,1.129.554,1.716a124.4,124.4,0,0,1-70.468-.623l-.507-2.05L381.906,346.1l-.083-.334a5.23,5.23,0,0,1,.065-2.773Z" transform="translate(-277.008 67.822)" fill="#2f2e41"/>
    <path id="Caminho_128" data-name="Caminho 128" d="M439.1,265.368a38.243,38.243,0,0,1-21.53,6.513,23.363,23.363,0,0,0,9.151,3.685,77.567,77.567,0,0,1-31.03.17,20.372,20.372,0,0,1-6.5-2.184,8.066,8.066,0,0,1-4.009-5.249c-.681-3.807,2.35-7.266,5.5-9.6a41.26,41.26,0,0,1,34.086-6.668c3.808.964,7.622,2.591,10.1,5.585s3.206,7.608.849,10.691Z" transform="translate(-264.388 8.559)" fill="#2f2e41"/>
    <path id="Caminho_129" data-name="Caminho 129" d="M404.9,322.284l2.7-4.146,11.958-18.363a15.222,15.222,0,0,1,19.917-7.511,14.653,14.653,0,0,1,7.672,19.5L439.76,337.54a5.336,5.336,0,0,1-2.887,3.361,5.526,5.526,0,0,1-4.485.081c-.028-.009-.046-.018-.074-.027L409.7,331.063,407.263,330a5.368,5.368,0,0,1-2.979-3.329A5.234,5.234,0,0,1,404.9,322.284Z" transform="translate(-308.112 39.629)" fill="#40b540"/>
  </g>
</svg>
