<svg xmlns="http://www.w3.org/2000/svg" xmlns:xlink="http://www.w3.org/1999/xlink" width="100.417" height="32.471" viewBox="0 0 100.417 32.471">
  <defs>
    <linearGradient id="linear-gradient-visa" x1="-2.249" y1="0.52" x2="0.981" y2="0.5" gradientUnits="objectBoundingBox">
      <stop offset="0" stop-color="#28275a"/>
      <stop offset="1" stop-color="#40378d"/>
    </linearGradient>
    <linearGradient id="linear-gradient-visa-2" x1="-1.732" y1="0.511" x2="2.08" y2="0.492" xlink:href="#linear-gradient-visa"/>
    <linearGradient id="linear-gradient-visa-3" x1="0.148" y1="0.502" x2="2.621" y2="0.482" xlink:href="#linear-gradient-visa"/>
    <linearGradient id="linear-gradient-visa-4" x1="-1.972" y1="0.508" x2="4.391" y2="0.488" xlink:href="#linear-gradient-visa"/>
  </defs>
  <g id="Forma_de_Pagamento2-01" data-name="Forma de Pagamento2-01" transform="translate(50.209 16.235)">
    <g id="Forma_de_Pagamento2-01-2" data-name="Forma de Pagamento2-01" transform="translate(-50.209 -16.235)">
      <path id="Caminho_494" data-name="Caminho 494" d="M177.979,36.408H170.4c-.3-1.338-.594-2.626-.793-3.963-.1-.545-.248-.743-.892-.743-3.022.05-6.044.05-9.115,0a.716.716,0,0,0-.793.545c-.4,1.238-.892,2.477-1.338,3.715-.05.149-.3.4-.4.4H148.8q.743-1.858,1.486-3.567C153.8,24.37,157.321,16,160.838,7.576A3.665,3.665,0,0,1,164.7,5h6.638c.2,1.04.446,2.031.644,3.022,1.734,8.323,3.468,16.6,5.2,24.919.2,1.04.5,2.13.743,3.171A.871.871,0,0,1,177.979,36.408Zm-9.908-11.146c-.793-3.864-1.585-7.679-2.378-11.493h-.1c-1.387,3.815-2.774,7.629-4.161,11.493Z" transform="translate(-77.562 -4.505)" fill="url(#linear-gradient-visa)"/>
      <path id="Caminho_495" data-name="Caminho 495" d="M121.823,4c.991.2,1.982.347,2.972.545.892.2,1.783.5,2.725.793-.5,2.279-.941,4.459-1.437,6.638-1.288-.347-2.477-.793-3.715-1.09a10.659,10.659,0,0,0-5.152-.05,4.894,4.894,0,0,0-1.932,1.04,1.743,1.743,0,0,0-.05,2.774,10.55,10.55,0,0,0,2.081,1.486c1.635.991,3.369,1.883,5,2.923a7.434,7.434,0,0,1,3.567,5.3,9.5,9.5,0,0,1-4.459,9.66,15.4,15.4,0,0,1-7.183,2.328,25.214,25.214,0,0,1-10.5-1.189c-.248-.1-.446-.149-.694-.248a1.083,1.083,0,0,0-.248-.149c.5-2.279.991-4.508,1.486-6.837.594.248,1.139.5,1.684.743a14.434,14.434,0,0,0,8.273,1.04,5.748,5.748,0,0,0,2.13-.892,2.251,2.251,0,0,0,.248-3.715,19.824,19.824,0,0,0-2.725-1.783c-1.437-.892-3.022-1.635-4.36-2.626a7.324,7.324,0,0,1-3.27-5.2,9.045,9.045,0,0,1,3.468-8.273A14.961,14.961,0,0,1,117.513,4.2a1.446,1.446,0,0,0,.446-.1C119.3,4,120.535,4,121.823,4Z" transform="translate(-54.35 -4)" fill="url(#linear-gradient-visa-2)"/>
      <path id="Caminho_496" data-name="Caminho 496" d="M43.1,5.15c-.446,1.04-.842,1.982-1.238,2.972C37.944,17.386,34.08,26.7,30.216,35.963a.754.754,0,0,1-.842.545c-2.477,0-4.9-.05-7.381,0-.545,0-.694-.2-.793-.644-2.13-8.125-4.26-16.2-6.292-24.324a4.287,4.287,0,0,0-2.527-3.121A43.185,43.185,0,0,0,5.347,6.14,3.157,3.157,0,0,1,5,6.041C5,5.1,5,5.1,5.892,5.1h12.88a3.773,3.773,0,0,1,3.914,3.22c1.09,5.7,2.18,11.444,3.22,17.141.05.248.1.5.149.842.1-.2.2-.347.248-.446,2.675-6.737,5.35-13.475,7.976-20.262a.7.7,0,0,1,.743-.5H42.5C42.7,5.1,42.848,5.15,43.1,5.15Z" transform="translate(-5 -4.555)" fill="url(#linear-gradient-visa-3)"/>
      <path id="Caminho_497" data-name="Caminho 497" d="M75.3,36.559c2.229-10.5,4.459-20.906,6.688-31.359h8.125c-.347,1.585-.694,3.171-.991,4.706-1.833,8.62-3.715,17.24-5.5,25.86-.149.594-.347.793-.941.793-2.229-.05-4.459,0-6.688,0Z" transform="translate(-40.473 -4.606)" fill="url(#linear-gradient-visa-4)"/>
    </g>
  </g>
</svg>
