<svg xmlns="http://www.w3.org/2000/svg" xmlns:xlink="http://www.w3.org/1999/xlink" width="553" height="326" viewBox="0 0 553 326">
    <defs>
      <linearGradient id="linear-gradient" x1="0.15" y1="-0.26" x2="0.735" y2="1.32" gradientUnits="objectBoundingBox">
        <stop offset="0" stop-color="#78f078"/>
        <stop offset="0.828" stop-color="#346a34"/>
        <stop offset="1" stop-color="#316431"/>
      </linearGradient>
      <clipPath id="clip-path">
        <rect id="Retângulo_753" data-name="Retângulo 753" width="92" height="46" fill="#fff" stroke="#707070" stroke-width="1"/>
      </clipPath>
      <clipPath id="clip-path-2">
        <rect id="Retângulo_779" data-name="Retângulo 779" width="131" height="147" transform="translate(10284 8671.021)" fill="#fff" stroke="#707070" stroke-width="1"/>
      </clipPath>
      <clipPath id="clip-path-3">
        <rect id="Retângulo_778" data-name="Retângulo 778" width="158.337" height="132.897"/>
      </clipPath>
    </defs>
    <rect id="Retângulo_752" data-name="Retângulo 752" width="553" height="326" rx="20" fill="url(#linear-gradient)"/>
    <text id="_5486_9189_1338_9032" data-name="5486 9189 1338 9032" transform="translate(54 198)" fill="#fff" font-size="28" font-family="Roboto-Regular, Roboto"><tspan x="0" y="0">5486 9189 1338 9032</tspan></text>
    <text id="NOME" transform="translate(54 264)" fill="#fff" font-size="11" font-family="Roboto-Regular, Roboto"><tspan x="0" y="0">NOME</tspan></text>
    <text id="Hannah_Isabelly_Lopes" data-name="Hannah Isabelly Lopes" transform="translate(54 298)" fill="#fff" font-size="21" font-family="Roboto-Regular, Roboto"><tspan x="0" y="0">Hannah Isabelly Lopes</tspan></text>
    <text id="VAL" transform="translate(386 263)" fill="#fff" font-size="11" font-family="Roboto-Regular, Roboto"><tspan x="0" y="0">VAL</tspan></text>
    <text id="_11_25" data-name="11/25" transform="translate(385 298)" fill="#fff" font-size="21" font-family="Roboto-Regular, Roboto"><tspan x="0" y="0">11/25</tspan></text>
    <text id="CVV" transform="translate(475 263)" fill="#fff" font-size="11" font-family="Roboto-Regular, Roboto"><tspan x="0" y="0">CVV</tspan></text>
    <text id="_555" data-name="555" transform="translate(475 298)" fill="#fff" font-size="21" font-family="Roboto-Regular, Roboto"><tspan x="0" y="0">555</tspan></text>
    <g id="Grupo_961" data-name="Grupo 961" transform="translate(43 36)" clip-path="url(#clip-path)">
      <g id="Forma_de_Pagamento2-02" data-name="Forma de Pagamento2-02" transform="translate(5.439)">
        <g id="Forma_de_Pagamento2-02-2" data-name="Forma de Pagamento2-02" transform="translate(0 0)">
          <g id="Grupo_960" data-name="Grupo 960">
            <path id="Caminho_1556" data-name="Caminho 1556" d="M81.232,25.584A22.964,22.964,0,0,1,89.9,7.624,22.518,22.518,0,0,0,75.684,2.7a22.884,22.884,0,1,0,0,45.768A23.228,23.228,0,0,0,89.9,43.545,22.86,22.86,0,0,1,81.232,25.584Z" transform="translate(-52.8 -2.7)" fill="#e30d17"/>
            <ellipse id="Elipse_258" data-name="Elipse 258" cx="8.668" cy="17.961" rx="8.668" ry="17.961" transform="translate(28.501 4.924)" fill="#eb610a"/>
            <path id="Caminho_1557" data-name="Caminho 1557" d="M157.477,53.2v-.693H157.2V52.3h.763v.208h-.277V53.2Zm1.456,0v-.624l-.208.485h-.208l-.208-.485V53.2H158.1v-.832h.277l.208.555.208-.555h.277V53.2Z" transform="translate(-84.803 -17.904)" fill="#f69f00"/>
            <path id="Caminho_1558" data-name="Caminho 1558" d="M120.516,2.7A23.228,23.228,0,0,0,106.3,7.624a22.941,22.941,0,0,1,0,35.921,22.518,22.518,0,0,0,14.216,4.924,22.884,22.884,0,0,0,0-45.768Z" transform="translate(-69.2 -2.7)" fill="#f69f00"/>
          </g>
        </g>
      </g>
    </g>
    <g id="Grupo_de_máscara_32" data-name="Grupo de máscara 32" transform="translate(-9898 -8645.021)" clip-path="url(#clip-path-2)">
      <g id="logo_2" transform="translate(10352.169 8743.472)">
        <g id="logo_2-2" data-name="logo_2" transform="translate(-79.168 -66.448)">
          <g id="Logo_Horizontal_1_">
            <g id="Grupo_993" data-name="Grupo 993">
              <g id="Grupo_992" data-name="Grupo 992" clip-path="url(#clip-path-3)">
                <g id="Grupo_991" data-name="Grupo 991" clip-path="url(#clip-path-3)">
                  <g id="Grupo_988" data-name="Grupo 988" clip-path="url(#clip-path-3)">
                    <path id="Caminho_1567" data-name="Caminho 1567" d="M14.429,63.141c0,42.82,36.091,77.53,80.614,77.53V129.6c-38.156,0-69.1-29.761-69.1-66.457Z" transform="translate(4.692 -7.757)" fill="#fff"/>
                  </g>
                  <g id="Grupo_989" data-name="Grupo 989" clip-path="url(#clip-path-3)">
                    <path id="Caminho_1568" data-name="Caminho 1568" d="M89.393,32.437c-25.437,0-46.055,19.829-46.055,44.293s20.618,44.31,46.055,44.31V132.1c-31.805,0-57.586-24.795-57.586-55.383S57.588,21.347,89.393,21.347Z" transform="translate(10.342 -21.347)" fill="#fff"/>
                  </g>
                  <g id="Grupo_990" data-name="Grupo 990" clip-path="url(#clip-path-3)">
                    <path id="Caminho_1569" data-name="Caminho 1569" d="M106.766,71.3c0-12.232-10.309-22.147-23.028-22.147S60.711,59.064,60.711,71.3,71.02,93.442,83.739,93.442v11.073c-19.086,0-34.542-14.88-34.542-33.237s15.455-33.22,34.542-33.22,34.542,14.864,34.542,33.22Z" transform="translate(15.996 -15.913)" fill="#fff"/>
                  </g>
                </g>
              </g>
            </g>
          </g>
        </g>
      </g>
    </g>
  </svg>
