<svg xmlns="http://www.w3.org/2000/svg" xmlns:xlink="http://www.w3.org/1999/xlink" width="101.703" height="16.985" viewBox="0 0 101.703 16.985">
  <defs>
    <linearGradient id="linear-gradient-discover" x1="0.287" y1="0.047" x2="0.711" y2="0.955" gradientUnits="objectBoundingBox">
      <stop offset="0.383" stop-color="#e05413"/>
      <stop offset="1" stop-color="#f6a100"/>
    </linearGradient>
    <clipPath id="clip-path">
      <ellipse id="Elipse_196" data-name="Elipse 196" cx="8.492" cy="8.492" rx="8.492" ry="8.492"/>
    </clipPath>
    <linearGradient id="linear-gradient-discover-2" x1="5.676" y1="11.486" x2="6.124" y2="12.431" gradientUnits="objectBoundingBox">
      <stop offset="0.323" stop-color="#e05413" stop-opacity="0"/>
      <stop offset="1" stop-color="#f6a100" stop-opacity="0"/>
    </linearGradient>
  </defs>
  <g id="Forma_de_Pagamento2-05" data-name="Forma de Pagamento2-05" transform="translate(50.852 8.492)">
    <g id="Forma_de_Pagamento2-05-2" data-name="Forma de Pagamento2-05" transform="translate(-50.852 -8.492)">
      <path id="Caminho_554" data-name="Caminho 554" d="M7.6,19.66c0-.257.051-.36.36-.36,1.544,0,3.037,0,4.581.051a8.622,8.622,0,0,1,5.97,2.316,7.367,7.367,0,0,1,2.162,3.963A7.949,7.949,0,0,1,18,33.454a7.722,7.722,0,0,1-4.529,1.853c-1.853.154-3.757.051-5.61.051-.206,0-.206-.1-.206-.257C7.651,33.506,7.651,22.234,7.6,19.66Zm3.14,12.713c0,.206.051.309.257.309.618,0,1.235,0,1.853-.051a4.772,4.772,0,0,0,3.037-1.287A5.388,5.388,0,0,0,17.431,26.3a4.819,4.819,0,0,0-3.448-3.912,10.765,10.765,0,0,0-2.882-.309c-.257,0-.36.051-.36.36Z" transform="translate(-7.6 -18.837)" fill="#2b2523" fill-rule="evenodd"/>
      <path id="Caminho_555" data-name="Caminho 555" d="M185.542,28.664c1.7,2.265,3.345,4.478,5.044,6.742h-3.5a.591.591,0,0,1-.566-.309c-1.287-1.956-2.625-3.912-3.963-5.867,0-.051-.051-.051-.051-.1a.3.3,0,0,0-.412-.154c-.154.051-.1.206-.1.309v5.765c0,.309-.1.36-.412.36h-2.471c-.206,0-.309-.051-.309-.257V19.657c0-.154,0-.257.257-.257,1.8.051,3.551-.051,5.353.051a5.307,5.307,0,0,1,3.346,1.287,4.55,4.55,0,0,1,1.39,3.809,4.185,4.185,0,0,1-3.4,4.118C185.7,28.613,185.645,28.664,185.542,28.664Zm-3.551-4.323v2.11c0,.257.051.309.309.309a12.543,12.543,0,0,0,1.39-.051,2.252,2.252,0,0,0,2.213-2.316,2.068,2.068,0,0,0-1.544-2.265,7.178,7.178,0,0,0-2.11-.206c-.206,0-.309.051-.309.309C181.991,22.9,181.991,23.62,181.991,24.341Z" transform="translate(-90.685 -18.885)" fill="#2b2523" fill-rule="evenodd"/>
      <path id="Caminho_556" data-name="Caminho 556" d="M157.7,19.609c0-.257.051-.309.309-.309H166.3c.206,0,.309.051.309.257v2.213c0,.206-.1.257-.257.257H161.2c-.309,0-.36.1-.36.36V25.27c0,.257.051.309.309.309h4.941c.257,0,.309.1.309.309V28c0,.206-.051.257-.257.257h-4.89c-.309,0-.36.1-.36.36V32.27c0,.257.051.309.309.309h5.147c.257,0,.309.051.309.309V35.1c0,.154-.051.257-.206.257H158.06c-.257,0-.257-.1-.257-.309C157.7,32.476,157.7,22.182,157.7,19.609Z" transform="translate(-80.445 -18.837)" fill="#2b2523" fill-rule="evenodd"/>
      <path id="Caminho_557" data-name="Caminho 557" d="M46.4,30.415a3.824,3.824,0,0,0,1.8,1.8,3.166,3.166,0,0,0,2.728.1,2.136,2.136,0,0,0,1.338-1.956,2,2,0,0,0-1.235-1.9,25.888,25.888,0,0,0-2.779-1.081,5.808,5.808,0,0,1-2.368-1.647,3.607,3.607,0,0,1-.669-1.647,4.523,4.523,0,0,1,3.294-5.147,6.486,6.486,0,0,1,6.176,1.39c.154.1.206.206.051.36-.463.566-.926,1.184-1.39,1.8-.154.206-.206.154-.309,0a3.291,3.291,0,0,0-1.8-1.081,2.47,2.47,0,0,0-2.471.772,1.374,1.374,0,0,0,.309,2.11,9.025,9.025,0,0,0,2.162.978,14.8,14.8,0,0,1,2.059.926,4,4,0,0,1,2.162,3.448A5.082,5.082,0,0,1,51.65,35.15a6.314,6.314,0,0,1-7.206-2.676c-.051-.1-.1-.154,0-.257C45.113,31.65,45.782,31.033,46.4,30.415Z" transform="translate(-25.452 -18.526)" fill="#2b2523" fill-rule="evenodd"/>
      <path id="Caminho_558" data-name="Caminho 558" d="M125,19.3h3.191c.206,0,.309.051.36.257.978,2.419,3.706,9.367,4.118,10.448.206-.206,2.934-7.206,4.272-10.448.051-.154.1-.257.257-.257h3.243c-.257.618-4.787,11.375-6.794,16.213-.1.206-.154.257-.36.257H132.1a.282.282,0,0,1-.309-.206c-1.235-3.037-5.61-13.588-6.537-15.853A.707.707,0,0,1,125,19.3Z" transform="translate(-64.575 -18.837)" fill="#2b2523" fill-rule="evenodd"/>
      <path id="Caminho_559" data-name="Caminho 559" d="M80.2,23.391a6.523,6.523,0,0,0-1.853-1.338,5.091,5.091,0,0,0-6.9,2.934,5.643,5.643,0,0,0,1.081,6.022,5.132,5.132,0,0,0,4.015,1.6,4.706,4.706,0,0,0,3.191-1.338c.154-.1.257-.257.412-.36.1.051.051.154.051.257V34.3a.317.317,0,0,1-.206.36,8.707,8.707,0,0,1-9.831-1.647A8.224,8.224,0,0,1,67.8,27.251a8.355,8.355,0,0,1,5.919-8.132A8.1,8.1,0,0,1,80,19.633c.1.051.206.1.206.257Z" transform="translate(-36.813 -18.553)" fill="#2b2523" fill-rule="evenodd"/>
      <path id="Caminho_560" data-name="Caminho 560" d="M39.091,35.047c0,.257-.051.36-.36.36H36.157c-.206,0-.257-.051-.257-.257V19.657c0-.257.051-.257.309-.257h2.522c.257,0,.36.051.36.36Z" transform="translate(-21.334 -18.885)" fill="#2b2523" fill-rule="evenodd"/>
      <path id="Caminho_561" data-name="Caminho 561" d="M201.336,20v1.544A.965.965,0,0,1,201.336,20Z" transform="translate(-101.434 -19.176)" fill="none" fill-rule="evenodd"/>
      <path id="Caminho_562" data-name="Caminho 562" d="M13.7,25.06c0-.309.1-.36.36-.36a9.02,9.02,0,0,1,2.882.309,4.819,4.819,0,0,1,3.448,3.912,5.22,5.22,0,0,1-1.544,5.044,4.772,4.772,0,0,1-3.037,1.287c-.618.051-1.235.051-1.853.051-.206,0-.257-.051-.257-.309C13.7,33.3,13.7,26.707,13.7,25.06Z" transform="translate(-10.56 -21.457)" fill="none" fill-rule="evenodd"/>
      <path id="Caminho_563" data-name="Caminho 563" d="M185,26.719v-2.11c0-.257.051-.309.309-.309a7.178,7.178,0,0,1,2.11.206,2.171,2.171,0,0,1,1.544,2.265,2.286,2.286,0,0,1-2.213,2.316,12.542,12.542,0,0,1-1.39.051c-.206,0-.309-.051-.309-.309C185,28.16,185,27.44,185,26.719Z" transform="translate(-93.694 -21.263)" fill="none" fill-rule="evenodd"/>
      <path id="Caminho_564" data-name="Caminho 564" d="M201.635,19.1a1.235,1.235,0,1,0,1.235,1.235A1.252,1.252,0,0,0,201.635,19.1Zm0,2.265a1.023,1.023,0,0,1-.978-1.029.99.99,0,0,1,.978-1.029,1.023,1.023,0,0,1,.978,1.029A.99.99,0,0,1,201.635,21.365Z" transform="translate(-101.167 -18.74)" fill="#2d2725" fill-rule="evenodd"/>
      <path id="Caminho_565" data-name="Caminho 565" d="M202.418,21.121l.463.618h-.309a.05.05,0,0,1-.051-.051c-.1-.154-.257-.36-.36-.515h-.051v.566c0,.051,0,.051-.051.051H201.8V20.4h.463a.731.731,0,0,1,.309.1.318.318,0,0,1,.1.36c.051.051-.051.206-.257.257Zm-.309-.412v.206a.05.05,0,0,0,.051.051h.1a.221.221,0,0,0,.206-.206c0-.1-.051-.154-.154-.206h-.206a.05.05,0,0,0-.051.051C202.109,20.606,202.109,20.657,202.109,20.709Z" transform="translate(-101.847 -19.371)" fill="#2b2523" fill-rule="evenodd"/>
      <g id="Grupo_317" data-name="Grupo 317" transform="translate(44.366)">
        <ellipse id="Elipse_195" data-name="Elipse 195" cx="8.492" cy="8.492" rx="8.492" ry="8.492" fill="url(#linear-gradient-discover)"/>
        <g id="Grupo_316" data-name="Grupo 316">
          <g id="Grupo_315" data-name="Grupo 315" clip-path="url(#clip-path)">
            <g id="Grupo_313" data-name="Grupo 313" transform="translate(-0.393 -0.397)">
              <path id="Caminho_566" data-name="Caminho 566" d="M111.341,21.937c4.22,4.787,4.323,11.684.154,15.338s-10.963,2.779-15.235-2.059c-4.22-4.787-4.323-11.684-.154-15.338S107.12,17.1,111.341,21.937Z" transform="translate(-93.036 -17.629)" fill-rule="evenodd" fill="url(#linear-gradient-discover-2)"/>
            </g>
            <g id="Grupo_314" data-name="Grupo 314" transform="translate(-0.393 -0.397)" opacity="0.75">
              <path id="Caminho_567" data-name="Caminho 567" d="M111.341,21.937c4.22,4.787,4.323,11.684.154,15.338s-10.963,2.779-15.235-2.059c-4.22-4.787-4.323-11.684-.154-15.338S107.12,17.1,111.341,21.937Z" transform="translate(-93.036 -17.629)" fill="#903415" fill-rule="evenodd"/>
            </g>
          </g>
        </g>
      </g>
    </g>
  </g>
</svg>
