<svg xmlns="http://www.w3.org/2000/svg" width="97.019" height="35.215" viewBox="0 0 97.019 35.215">
  <g id="Forma_de_Pagamento2-03" data-name="Forma de Pagamento2-03" transform="translate(48.509 17.608)">
    <g id="Forma_de_Pagamento2-03-2" data-name="Forma de Pagamento2-03" transform="translate(-48.509 -17.608)">
      <path id="Caminho_508" data-name="Caminho 508" d="M60.4,53.858V38.6H76.495l1.738,2.253,1.8-2.253h58.52V52.763a6.721,6.721,0,0,1-3.283,1.03H102.89l-1.931-2.382v2.382H94.585v-4.12a5.449,5.449,0,0,1-2.768.579H89.628v3.541H79.971l-1.8-2.253L76.43,53.858Z" transform="translate(-41.537 -18.643)" fill="#fff" fill-rule="evenodd"/>
      <path id="Caminho_509" data-name="Caminho 509" d="M31.1,16.1l3.605-8.5h6.309l2.06,4.764V7.6h7.79l1.223,3.412L53.246,7.6H88.333V9.338A7.633,7.633,0,0,1,93.226,7.6l11.4.064,2,4.7V7.6h6.567l1.8,2.7V7.6h6.631V22.793h-6.631l-1.738-2.7v2.7h-9.592l-.966-2.382h-2.575l-.966,2.382h-6.5A6.266,6.266,0,0,1,88.4,21.12v1.674h-9.85l-1.931-2.382v2.382h-36.5l-.966-2.382H36.572l-.966,2.382H31.1V16.1Z" transform="translate(-31.1 -7.6)" fill="#fff" fill-rule="evenodd"/>
      <path id="Caminho_510" data-name="Caminho 510" d="M36.093,10.5,31.2,21.9h3.219l.9-2.253H40.6l.9,2.253h3.283L39.891,10.5Zm1.8,2.7L39.5,17.2H36.286L37.9,13.2Z" transform="translate(-31.136 -8.633)" fill="#2a6cb4" fill-rule="evenodd"/>
      <path id="Caminho_511" data-name="Caminho 511" d="M52.7,21.9V10.5l4.507.064,2.64,7.339,2.575-7.4h4.507V21.9H64.1V13.526L61.069,21.9H58.558l-3.026-8.369V21.9Z" transform="translate(-38.794 -8.633)" fill="#2a6cb4" fill-rule="evenodd"/>
      <path id="Caminho_512" data-name="Caminho 512" d="M77.8,21.9V10.5h9.335v2.575H80.7v1.931h6.245v2.382H80.7v2.06h6.438V21.9Z" transform="translate(-47.735 -8.633)" fill="#2a6cb4" fill-rule="evenodd"/>
      <path id="Caminho_513" data-name="Caminho 513" d="M94.8,10.5V21.9h2.833V17.839h1.223l3.412,4.056h3.476L102.01,17.71a3.505,3.505,0,0,0,3.155-3.476c0-2.382-1.867-3.67-3.991-3.67H94.8Zm2.9,2.575h3.283a1.3,1.3,0,0,1,1.352,1.223,1.274,1.274,0,0,1-1.288,1.223H97.761L97.7,13.075Z" transform="translate(-53.791 -8.633)" fill="#2a6cb4" fill-rule="evenodd"/>
      <path id="Caminho_514" data-name="Caminho 514" d="M115.6,21.9h-2.9V10.5h2.9Z" transform="translate(-60.167 -8.633)" fill="#2a6cb4" fill-rule="evenodd"/>
      <path id="Caminho_515" data-name="Caminho 515" d="M124.837,21.9h-.644c-3.026,0-4.893-2.382-4.893-5.665,0-3.348,1.8-5.73,5.665-5.73h3.155v2.7H124.9c-1.545,0-2.64,1.223-2.64,3.09a2.83,2.83,0,0,0,3.09,3.155h.773L124.837,21.9Z" transform="translate(-62.518 -8.633)" fill="#2a6cb4" fill-rule="evenodd"/>
      <path id="Caminho_516" data-name="Caminho 516" d="M134.893,10.5,130,21.9h3.219l.9-2.253H139.4l.9,2.253h3.283l-4.893-11.4Zm1.8,2.7L138.3,17.2h-3.219L136.7,13.2Z" transform="translate(-66.329 -8.633)" fill="#2a6cb4" fill-rule="evenodd"/>
      <path id="Caminho_517" data-name="Caminho 517" d="M151.5,21.9V10.5h3.605l4.635,7.21V10.5h2.833V21.9h-3.541l-4.7-7.339V21.9Z" transform="translate(-73.988 -8.633)" fill="#2a6cb4" fill-rule="evenodd"/>
      <path id="Caminho_518" data-name="Caminho 518" d="M63.4,52.9V41.5h9.271v2.575H66.3v1.931h6.245v2.382H66.3v2.06h6.374V52.9Z" transform="translate(-42.606 -19.676)" fill="#2a6cb4" fill-rule="evenodd"/>
      <path id="Caminho_519" data-name="Caminho 519" d="M134.2,52.9V41.5h9.271v2.575h-6.438v1.931h6.245v2.382h-6.245v2.06h6.438V52.9Z" transform="translate(-67.825 -19.676)" fill="#2a6cb4" fill-rule="evenodd"/>
      <path id="Caminho_520" data-name="Caminho 520" d="M78.329,52.9l4.507-5.6L78.2,41.5h3.605l2.768,3.605L87.342,41.5h3.412l-4.571,5.73L90.754,52.9H87.149l-2.7-3.476L81.87,52.9Z" transform="translate(-47.878 -19.676)" fill="#2a6cb4" fill-rule="evenodd"/>
      <path id="Caminho_521" data-name="Caminho 521" d="M98.2,41.464v11.4h2.9V49.254h3.026c2.511,0,4.442-1.352,4.442-3.991a3.756,3.756,0,0,0-4.12-3.863H98.2Zm2.961,2.575h3.155a1.293,1.293,0,1,1,0,2.575h-3.155V44.04Z" transform="translate(-55.002 -19.64)" fill="#2a6cb4" fill-rule="evenodd"/>
      <path id="Caminho_522" data-name="Caminho 522" d="M116.3,41.5V52.9h2.833V48.839h1.223l3.412,4.056h3.476L123.51,48.71a3.505,3.505,0,0,0,3.155-3.476c0-2.382-1.867-3.67-3.991-3.67L116.3,41.5Zm2.833,2.575h3.283a1.3,1.3,0,0,1,1.352,1.223,1.274,1.274,0,0,1-1.288,1.223H119.2V44.075Z" transform="translate(-61.449 -19.676)" fill="#2a6cb4" fill-rule="evenodd"/>
      <path id="Caminho_523" data-name="Caminho 523" d="M150.522,52.9V50.449h5.73c.837,0,1.223-.451,1.223-.966,0-.451-.386-.966-1.223-.966h-2.575a3.165,3.165,0,0,1-3.476-3.412c0-1.8,1.159-3.605,4.442-3.605h5.537l-1.223,2.575h-4.828c-.9,0-1.223.451-1.223.966a.963.963,0,0,0,1.03.966h2.7c2.511,0,3.605,1.416,3.605,3.283a3.414,3.414,0,0,1-3.734,3.605Z" transform="translate(-73.525 -19.676)" fill="#2a6cb4" fill-rule="evenodd"/>
      <path id="Caminho_524" data-name="Caminho 524" d="M166.722,52.9V50.449h5.472c.837,0,1.223-.451,1.223-.966,0-.451-.386-.966-1.223-.966h-2.318a3.165,3.165,0,0,1-3.476-3.412c0-1.8,1.159-3.605,4.442-3.605h5.408l-1.223,2.575h-4.7c-.9,0-1.223.451-1.223.966a.963.963,0,0,0,1.03.966h2.446c2.511,0,3.605,1.416,3.605,3.283a3.414,3.414,0,0,1-3.734,3.605Z" transform="translate(-79.295 -19.676)" fill="#2a6cb4" fill-rule="evenodd"/>
    </g>
  </g>
</svg>
