<svg xmlns="http://www.w3.org/2000/svg" xmlns:xlink="http://www.w3.org/1999/xlink" width="132" height="46" viewBox="0 0 132 46">
  <defs>
    <clipPath id="clip-path">
      <rect id="Ret칙ngulo_696" data-name="Ret칙ngulo 696" width="132" height="46" transform="translate(-0.143 -0.031)" fill="#fff" stroke="#707070" stroke-width="1"/>
    </clipPath>
    <clipPath id="clip-path-2">
      <path id="path968-7" d="M0-24H272.169V129.095H0Z" transform="translate(0 24)"/>
    </clipPath>
  </defs>
  <g id="Grupo_de_m치scara_27" data-name="Grupo de m치scara 27" transform="translate(0.143 0.031)" clip-path="url(#clip-path)">
    <g id="g10" transform="translate(-72.527 -31.059)">
      <g id="g964" transform="translate(0 0)">
        <g id="g966" clip-path="url(#clip-path-2)">
          <g id="g972" transform="translate(125.022 41.774)">
            <path id="path974" d="M0,20.852V2.3a6.18,6.18,0,0,1,6.18-6.18l5.477.008A6.171,6.171,0,0,1,17.815,2.3V6.25a6.18,6.18,0,0,1-6.18,6.18H3.9" transform="translate(0 3.877)" fill="none" stroke="#939598" stroke-linecap="round" stroke-linejoin="round" stroke-miterlimit="10" stroke-width="0.179"/>
          </g>
          <g id="g976" transform="translate(144.367 41.771)">
            <path id="path978" d="M0,0H2.376A2.536,2.536,0,0,1,4.912,2.536V16.392" fill="none" stroke="#939598" stroke-linecap="round" stroke-linejoin="round" stroke-miterlimit="10" stroke-width="0.179"/>
          </g>
          <g id="g980" transform="translate(147.491 36.302)">
            <path id="path982" d="M1.078,2.8,0,1.725A.684.684,0,0,1,0,.757L1.077-.32a.685.685,0,0,1,.969,0L3.123.757a.684.684,0,0,1,0,.968L2.046,2.8a.685.685,0,0,1-.968,0" transform="translate(0.2 0.521)" fill="#32bcad"/>
          </g>
          <g id="g984" transform="translate(153.836 41.759)">
            <path id="path986" d="M0,0H2.356A4.569,4.569,0,0,1,5.587,1.338L11.1,6.849a1.828,1.828,0,0,0,2.585,0l5.491-5.49A4.57,4.57,0,0,1,22.4.02H24.32" fill="none" stroke="#939598" stroke-linecap="round" stroke-linejoin="round" stroke-miterlimit="10" stroke-width="0.179"/>
          </g>
          <g id="g988" transform="translate(153.836 50.658)">
            <path id="path990" d="M0,6.227H2.356A4.569,4.569,0,0,0,5.587,4.888L11.1-.622a1.828,1.828,0,0,1,2.585,0l5.491,5.49A4.569,4.569,0,0,0,22.4,6.207H24.32" transform="translate(0 1.158)" fill="none" stroke="#939598" stroke-linecap="round" stroke-linejoin="round" stroke-miterlimit="10" stroke-width="0.179"/>
          </g>
          <g id="g992" transform="translate(93.578 55.508)">
            <path id="path994" d="M14.67,5.106a4.4,4.4,0,0,1-3.131-1.3L7.019-.711a.859.859,0,0,0-1.188,0L1.294,3.826a4.4,4.4,0,0,1-3.131,1.3h-.891L3,10.847a4.579,4.579,0,0,0,6.475,0l5.742-5.742Z" transform="translate(2.727 0.949)" fill="#32bcad"/>
          </g>
          <g id="g996" transform="translate(93.578 38.507)">
            <path id="path998" d="M.751,5.958a4.4,4.4,0,0,1,3.131,1.3l4.537,4.538a.841.841,0,0,0,1.188,0l4.52-4.521a4.4,4.4,0,0,1,3.131-1.3H17.8L12.061.233a4.579,4.579,0,0,0-6.475,0L-.14,5.958Z" transform="translate(0.14 1.108)" fill="#32bcad"/>
          </g>
          <g id="g1000" transform="translate(87.471 46.855)">
            <path id="path1002" d="M24.283,2.937l-3.47-3.47a.66.66,0,0,1-.246.05H18.99A3.118,3.118,0,0,0,16.8.425L12.279,4.945a2.172,2.172,0,0,1-3.068,0L4.673.408A3.118,3.118,0,0,0,2.483-.5H.543A.658.658,0,0,1,.31-.546L-3.173,2.937a4.579,4.579,0,0,0,0,6.475L.31,12.9a.659.659,0,0,1,.233-.047h1.94a3.118,3.118,0,0,0,2.19-.907L9.21,7.4a2.222,2.222,0,0,1,3.069,0l4.521,4.52a3.117,3.117,0,0,0,2.19.908h1.577a.661.661,0,0,1,.247.05l3.47-3.469a4.579,4.579,0,0,0,0-6.475" transform="translate(4.514 0.546)" fill="#32bcad"/>
          </g>
          <g id="g1004" transform="translate(128.691 64.744)">
            <path id="path1006" d="M.877.153A4.014,4.014,0,0,0,.028.282v1.13a1.965,1.965,0,0,0,.661.11c.567,0,.836-.191.836-.69,0-.47-.22-.68-.648-.68m-1.04,2.1V.017h.156l.016.1A4.441,4.441,0,0,1,.893-.028a.879.879,0,0,1,.58.168.853.853,0,0,1,.256.693.777.777,0,0,1-.363.719A1.4,1.4,0,0,1,.708,1.7a2.369,2.369,0,0,1-.68-.1v.658Z" transform="translate(0.163 0.028)" fill="#939598"/>
          </g>
          <g id="g1008" transform="translate(130.982 64.744)">
            <path id="path1010" d="M.863.147C.3.147.044.326.044.824c0,.483.249.7.82.7S1.68,1.349,1.68.85c0-.483-.249-.7-.816-.7m.729,1.377A1.228,1.228,0,0,1,.863,1.7a1.246,1.246,0,0,1-.732-.175A.782.782,0,0,1-.16.837.8.8,0,0,1,.131.147,1.245,1.245,0,0,1,.863-.027a1.245,1.245,0,0,1,.729.175.785.785,0,0,1,.292.687.788.788,0,0,1-.292.69" transform="translate(0.16 0.027)" fill="#939598"/>
          </g>
          <g id="g1012" transform="translate(133.306 64.79)">
            <path id="path1014" d="M1.781,1.38,1.149.022H1.136L.514,1.38H.343L-.331-.256h.21L.44,1.117H.453L1.062-.256h.175l.625,1.373h.013L2.422-.256h.2L1.953,1.38Z" transform="translate(0.331 0.256)" fill="#939598"/>
          </g>
          <g id="g1016" transform="translate(136.543 64.744)">
            <path id="path1018" d="M.795.145c-.525,0-.7.233-.735.57H1.53C1.514.343,1.323.145.795.145M.789,1.7a.986.986,0,0,1-.68-.182A.848.848,0,0,1-.148.838a.853.853,0,0,1,.3-.7A1.1,1.1,0,0,1,.795-.027a1.146,1.146,0,0,1,.654.159.83.83,0,0,1,.282.755H.053c.006.337.117.635.751.635a4.907,4.907,0,0,0,.846-.094V1.6a5,5,0,0,1-.862.1" transform="translate(0.148 0.027)" fill="#939598"/>
          </g>
          <g id="g1020" transform="translate(138.971 64.744)">
            <path id="path1022" d="M0,1.418V-.218H.156l.016.1A2.881,2.881,0,0,1,.985-.264h.023v.181H.962A2.672,2.672,0,0,0,.191.047v1.37Z" transform="translate(0 0.264)" fill="#939598"/>
          </g>
          <g id="g1024" transform="translate(140.146 64.744)">
            <path id="path1026" d="M.795.145c-.525,0-.7.233-.735.57H1.53C1.514.343,1.323.145.795.145M.789,1.7a.986.986,0,0,1-.68-.182A.848.848,0,0,1-.148.838a.853.853,0,0,1,.3-.7A1.1,1.1,0,0,1,.795-.027a1.146,1.146,0,0,1,.654.159.83.83,0,0,1,.282.755H.053c.006.337.117.635.751.635a4.907,4.907,0,0,0,.846-.094V1.6a5,5,0,0,1-.862.1" transform="translate(0.148 0.027)" fill="#939598"/>
          </g>
          <g id="g1028" transform="translate(142.418 64.1)">
            <path id="path1030" d="M1.434.784A1.96,1.96,0,0,0,.773.674c-.567,0-.836.191-.836.69,0,.473.22.68.648.68a4.209,4.209,0,0,0,.849-.126Zm.036,1.4-.016-.1a4.45,4.45,0,0,1-.884.143.862.862,0,0,1-.58-.169.854.854,0,0,1-.256-.693A.769.769,0,0,1,.1.648,1.37,1.37,0,0,1,.757.5a2.478,2.478,0,0,1,.677.1V-.146h.191V2.18Z" transform="translate(0.267 0.146)" fill="#939598"/>
          </g>
          <g id="g1032" transform="translate(146.072 64.1)">
            <path id="path1034" d="M.877.7A4.014,4.014,0,0,0,.028.826V1.953a1.9,1.9,0,0,0,.661.114c.567,0,.836-.191.836-.69C1.525.907,1.3.7.877.7m.489,1.4a1.4,1.4,0,0,1-.658.146,2.329,2.329,0,0,1-.732-.123l-.01.078h-.13V-.13H.028V.651A4.632,4.632,0,0,1,.893.515a.879.879,0,0,1,.58.168.853.853,0,0,1,.256.693.778.778,0,0,1-.363.719" transform="translate(0.163 0.13)" fill="#939598"/>
          </g>
          <g id="g1036" transform="translate(148.179 64.79)">
            <path id="path1038" d="M.033,1.909V1.731c.094.01.182.016.243.016A.5.5,0,0,0,.787,1.41l.062-.129L-.006-.355h.22L.946,1.057H.959l.7-1.412h.217L.953,1.482a.667.667,0,0,1-.684.444,1.984,1.984,0,0,1-.236-.016" transform="translate(0.006 0.355)" fill="#939598"/>
          </g>
          <g id="g1040" transform="translate(151.562 64.207)">
            <path id="path1042" d="M.953,1.084H.318v.574H.957c.437,0,.6-.049.6-.288,0-.256-.227-.285-.606-.285M.837.154H.318V.738H.84c.431,0,.6-.052.6-.295,0-.259-.217-.288-.606-.288m.985,1.708a1.884,1.884,0,0,1-1.03.155H-.177V-.2H.769a1.8,1.8,0,0,1,.943.143.469.469,0,0,1,.227.44.485.485,0,0,1-.35.492V.887c.285.065.47.211.47.525a.479.479,0,0,1-.236.45" transform="translate(0.177 0.202)" fill="#939598"/>
          </g>
          <g id="g1044" transform="translate(154.254 64.744)">
            <path id="path1046" d="M1.248.839C1.057.822.863.813.659.813c-.334,0-.45.068-.45.22s.1.22.353.22a3.353,3.353,0,0,0,.687-.1Zm.1.687-.013-.1a3.945,3.945,0,0,1-.888.143.848.848,0,0,1-.5-.12.464.464,0,0,1-.181-.4A.46.46,0,0,1,.043.612,1.5,1.5,0,0,1,.656.524c.172,0,.4.01.593.023V.518c0-.256-.169-.34-.629-.34-.178,0-.4.009-.6.029v-.33c.23-.019.489-.032.7-.032A1.385,1.385,0,0,1,1.482,0a.6.6,0,0,1,.224.56v.969Z" transform="translate(0.232 0.156)" fill="#939598"/>
          </g>
          <g id="g1048" transform="translate(156.779 64.744)">
            <path id="path1050" d="M1.306,1.418v-.9c0-.3-.152-.4-.424-.4a3.085,3.085,0,0,0-.667.1V1.418H-.243V-.218H.13l.016.1a3.8,3.8,0,0,1,.875-.149.807.807,0,0,1,.56.168.635.635,0,0,1,.178.512v1Z" transform="translate(0.243 0.264)" fill="#939598"/>
          </g>
          <g id="g1052" transform="translate(159.203 64.744)">
            <path id="path1054" d="M.732,1.456a.926.926,0,0,1-.609-.172A.844.844,0,0,1-.136.591.8.8,0,0,1,.2-.109,1.3,1.3,0,0,1,.917-.271c.188,0,.373.013.577.032v.35C1.328.1,1.13.082.972.082.538.082.334.219.334.594c0,.353.152.505.509.505a3.866,3.866,0,0,0,.687-.084v.337a4.117,4.117,0,0,1-.8.1" transform="translate(0.136 0.271)" fill="#939598"/>
          </g>
          <g id="g1056" transform="translate(161.122 64.744)">
            <path id="path1058" d="M.923.289C.489.289.3.426.3.8s.188.531.625.531.619-.133.619-.506S1.358.289.923.289M1.707,1.5a1.377,1.377,0,0,1-.784.172A1.4,1.4,0,0,1,.136,1.5.763.763,0,0,1-.172.811.769.769,0,0,1,.136.118,1.394,1.394,0,0,1,.923-.054a1.4,1.4,0,0,1,.784.172.764.764,0,0,1,.3.69.774.774,0,0,1-.3.693" transform="translate(0.172 0.054)" fill="#939598"/>
          </g>
          <g id="g1060" transform="translate(164.8 64.161)">
            <path id="path1062" d="M.964,1.948a1.231,1.231,0,0,1-.8-.23A1.143,1.143,0,0,1-.179.791a1.087,1.087,0,0,1,.45-.943,1.7,1.7,0,0,1,.94-.21c.246,0,.5.016.774.039v.4C1.748.056,1.457.039,1.23.039c-.632,0-.9.24-.9.752s.249.755.716.755a5.068,5.068,0,0,0,.988-.133v.4a5.507,5.507,0,0,1-1.069.139" transform="translate(0.179 0.362)" fill="#939598"/>
          </g>
          <g id="g1064" transform="translate(167.331 64.744)">
            <path id="path1066" d="M.863.246C.484.246.338.382.309.631h1.1C1.4.366,1.242.246.863.246M.8,1.681A1.057,1.057,0,0,1,.1,1.5.841.841,0,0,1-.16.816.829.829,0,0,1,.147.126,1.214,1.214,0,0,1,.863-.046a1.263,1.263,0,0,1,.709.165c.263.185.285.47.288.807H.306c.01.249.143.412.6.412a5.866,5.866,0,0,0,.872-.084v.321A6.168,6.168,0,0,1,.8,1.681" transform="translate(0.16 0.046)" fill="#939598"/>
          </g>
          <g id="g1068" transform="translate(169.836 64.744)">
            <path id="path1070" d="M1.306,1.418v-.9c0-.3-.152-.4-.424-.4a3.085,3.085,0,0,0-.667.1V1.418H-.243V-.218H.13l.016.1a3.8,3.8,0,0,1,.875-.149.807.807,0,0,1,.56.168.635.635,0,0,1,.178.512v1Z" transform="translate(0.243 0.264)" fill="#939598"/>
          </g>
          <g id="g1072" transform="translate(172.156 64.294)">
            <path id="path1074" d="M.828,1.836A.594.594,0,0,1,.3,1.6a.848.848,0,0,1-.12-.5V.494h-.33V.154h.33l.049-.5h.4v.5h.645v.34H.63v.525a.78.78,0,0,0,.045.311.291.291,0,0,0,.3.152A2.068,2.068,0,0,0,1.3,1.45v.327a2.568,2.568,0,0,1-.473.058" transform="translate(0.154 0.341)" fill="#939598"/>
          </g>
          <g id="g1076" transform="translate(174.031 64.744)">
            <path id="path1078" d="M0,1.418V-.218H.373l.016.1A2.846,2.846,0,0,1,1.2-.264a.477.477,0,0,1,.058,0V.128c-.052,0-.113,0-.159,0A2.559,2.559,0,0,0,.457.209V1.418Z" transform="translate(0 0.264)" fill="#939598"/>
          </g>
          <g id="g1080" transform="translate(175.468 64.744)">
            <path id="path1082" d="M1.248.839C1.057.822.863.813.659.813c-.334,0-.45.068-.45.22s.1.22.353.22a3.353,3.353,0,0,0,.687-.1Zm.1.687-.013-.1a3.948,3.948,0,0,1-.888.143.848.848,0,0,1-.5-.12.464.464,0,0,1-.181-.4A.46.46,0,0,1,.043.612,1.5,1.5,0,0,1,.656.524c.172,0,.4.01.593.023V.518c0-.256-.169-.34-.629-.34-.178,0-.4.009-.6.029v-.33c.23-.019.489-.032.7-.032A1.385,1.385,0,0,1,1.482,0a.6.6,0,0,1,.224.56v.969Z" transform="translate(0.232 0.156)" fill="#939598"/>
          </g>
          <path id="path1084" d="M27.9-13.951h.457v2.326H27.9Z" transform="translate(150.089 78.051)" fill="#939598"/>
        </g>
      </g>
    </g>
  </g>
</svg>
