<svg xmlns="http://www.w3.org/2000/svg" width="64.513" height="39.756" viewBox="0 0 64.513 39.756">
  <g id="Forma_de_Pagamento2-02" data-name="Forma de Pagamento2-02" transform="translate(32.256 19.878)">
    <g id="Forma_de_Pagamento2-02-2" data-name="Forma de Pagamento2-02" transform="translate(-32.256 -19.878)">
      <g id="Grupo_300" data-name="Grupo 300">
        <path id="Caminho_502" data-name="Caminho 502" d="M77.5,22.578a19.947,19.947,0,0,1,7.53-15.6A19.56,19.56,0,0,0,72.678,2.7a19.878,19.878,0,1,0,0,39.756,20.177,20.177,0,0,0,12.348-4.277A19.857,19.857,0,0,1,77.5,22.578Z" transform="translate(-52.8 -2.7)" fill="#e30d17"/>
        <ellipse id="Elipse_193" data-name="Elipse 193" cx="7.53" cy="15.601" rx="7.53" ry="15.601" transform="translate(24.757 4.277)" fill="#eb610a"/>
        <path id="Caminho_503" data-name="Caminho 503" d="M157.441,53.083v-.6H157.2V52.3h.663v.181h-.241v.6Zm1.265,0v-.542l-.181.422h-.181l-.181-.422v.542h-.181V52.36h.241l.181.482.181-.482h.241v.723Z" transform="translate(-94.313 -22.423)" fill="#f69f00"/>
        <path id="Caminho_504" data-name="Caminho 504" d="M118.648,2.7A20.177,20.177,0,0,0,106.3,6.977a19.928,19.928,0,0,1,0,31.2,19.56,19.56,0,0,0,12.348,4.277,19.878,19.878,0,0,0,0-39.756Z" transform="translate(-74.074 -2.7)" fill="#f69f00"/>
      </g>
    </g>
  </g>
</svg>
