<svg xmlns="http://www.w3.org/2000/svg" width="70.595" height="35.215" viewBox="0 0 70.595 35.215">
  <g id="Forma_de_Pagamento2-04" data-name="Forma de Pagamento2-04" transform="translate(35.297 17.607)">
    <g id="Forma_de_Pagamento2-04-2" data-name="Forma de Pagamento2-04" transform="translate(-35.297 -17.607)">
      <g id="Grupo_307" data-name="Grupo 307">
        <g id="Grupo_305" data-name="Grupo 305">
          <g id="Grupo_304" data-name="Grupo 304" transform="translate(0 6.466)">
            <path id="Caminho_542" data-name="Caminho 542" d="M68.244,51.7a8.48,8.48,0,0,1-6.025,2.432,7.97,7.97,0,0,1-4.367-1.327L54.7,57.836a14.268,14.268,0,0,0,17.634-1.88Z" transform="translate(-48.009 -31.3)" fill="#616160"/>
            <path id="Caminho_543" data-name="Caminho 543" d="M57.136,14.8A14.333,14.333,0,0,0,42.6,28.95a13.956,13.956,0,0,0,2.322,8.071L70.956,25.91A14.436,14.436,0,0,0,57.136,14.8M48.513,30.056a6.009,6.009,0,0,1-.055-1A8.433,8.433,0,0,1,63.328,23.7Z" transform="translate(-42.595 -14.797)" fill="#616160"/>
          </g>
          <path id="Caminho_544" data-name="Caminho 544" d="M104.173,3.1V30.85l4.809,1.99-2.266,5.473-4.754-1.99a5.158,5.158,0,0,1-2.322-1.99,6.013,6.013,0,0,1-.94-3.427V3.1Z" transform="translate(-67.686 -3.1)" fill="#616160"/>
        </g>
        <g id="Grupo_306" data-name="Grupo 306" transform="translate(42.126 6.468)">
          <path id="Caminho_545" data-name="Caminho 545" d="M138.48,21.157a8.615,8.615,0,0,1,2.653-.442,8.484,8.484,0,0,1,8.292,6.744l5.8-1.161a14.358,14.358,0,0,0-14.1-11.5,14.974,14.974,0,0,0-4.533.719Z" transform="translate(-126.76 -14.8)" fill="#616160"/>
          <path id="Caminho_546" data-name="Caminho 546" d="M123.665,42.8l3.925-4.422a8.4,8.4,0,0,1-2.875-6.357,8.284,8.284,0,0,1,2.875-6.3L123.665,21.3a14.314,14.314,0,0,0,0,21.5Z" transform="translate(-118.8 -17.707)" fill="#616160"/>
          <path id="Caminho_547" data-name="Caminho 547" d="M149.38,43.9a8.429,8.429,0,0,1-8.292,6.744,8.966,8.966,0,0,1-2.709-.442l-1.88,5.583a13.9,13.9,0,0,0,4.533.719,14.4,14.4,0,0,0,14.1-11.5Z" transform="translate(-126.716 -27.814)" fill="#616160"/>
        </g>
      </g>
    </g>
  </g>
</svg>
