<svg xmlns="http://www.w3.org/2000/svg" width="80.873" height="35.215" viewBox="0 0 80.873 35.215">
  <g id="Forma_de_Pagamento2-06" data-name="Forma de Pagamento2-06" transform="translate(40.437 17.607)">
    <g id="Forma_de_Pagamento2-06-2" data-name="Forma de Pagamento2-06" transform="translate(-40.437 -17.607)">
      <path id="fundo" d="M54.746,2.7H46.38c-3.718.164-6.726,1.64-7.6,4.757-.437,1.586-.711,3.39-1.039,5.031C35.936,20.963,34.3,29.6,32.6,37.915H97.835c5.031,0,8.53-1.039,9.46-5.085.437-1.859.875-3.992,1.258-6.015,1.64-7.983,3.226-15.912,4.921-24.114H54.746Z" transform="translate(-32.6 -2.7)" fill="#9a1915" fill-rule="evenodd"/>
      <path id="hipercard" d="M59.936,23.923c.328-.219.82-1.367.273-1.8-.164-.164-.437-.164-.82-.109a1.016,1.016,0,0,0-.711.383c-.219.328-.437,1.2-.055,1.531A1.255,1.255,0,0,0,59.936,23.923Zm-4.976-1.8c-.273,1.64-.547,3.226-.82,4.812-1.8,0-3.664.109-5.413-.055.328-1.586.547-3.226.875-4.757H47.633c-.711,3.992-1.367,8.038-2.133,11.92h2.023c.328-2.023.6-4.046,1.039-5.906a44.594,44.594,0,0,1,5.413.055c-.328,1.969-.766,3.882-1.039,5.906H54.96c.656-4.046,1.312-8.038,2.133-11.92H54.96Zm28.325,3.445a2.639,2.639,0,0,0-3.336,1.422c.109-.437.164-.984.273-1.422H78.691c-.383,2.953-.93,5.687-1.476,8.53h1.75a36.741,36.741,0,0,1,.875-5.468,2.446,2.446,0,0,1,3.226-1.75A9.381,9.381,0,0,1,83.285,25.564Zm.984,6.507a4,4,0,0,1-.164-1.64,5.906,5.906,0,0,1,1.2-3.281c.93-.875,2.734-.766,4.156-.219.055-.492.164-.93.219-1.367-2.351-.383-4.593-.164-5.8,1.094a6.99,6.99,0,0,0-1.367,5.8c.656,2.078,3.445,2.187,5.742,1.367a10.949,10.949,0,0,0,.219-1.312C87.222,33.164,84.816,33.492,84.269,32.071Zm19.74-6.452c-1.531-.766-2.843.547-3.336,1.312a10.074,10.074,0,0,0,.273-1.367H99.361c-.437,2.9-.93,5.742-1.531,8.53h1.8a18.752,18.752,0,0,1,.383-3.062c.383-2.351.93-4.921,3.664-4.156C103.845,26.439,103.9,26,104.009,25.618Zm-45.877-.055c-.055,0-.055.055-.055.109-.383,2.9-.93,5.632-1.476,8.366h1.75c.437-2.9.93-5.8,1.531-8.53h-1.75ZM73.606,25.4a4.615,4.615,0,0,0-3.117,1.258,7.139,7.139,0,0,0-1.476,5.14c.328,2.843,3.828,2.734,6.671,2.023.055-.492.164-.93.219-1.367-1.148.437-3.172,1.039-4.374.273-.875-.547-.93-2.023-.6-3.281,1.914-.055,3.882-.055,5.742,0a5.808,5.808,0,0,0,.164-2.734C76.45,25.618,75.028,25.29,73.606,25.4Zm1.64,3.117H71.091a2.426,2.426,0,0,1,2.351-2.023C74.7,26.439,75.629,26.931,75.247,28.516Zm-8.312-2.953a4.674,4.674,0,0,0-4.1.766c0,.055,0,.055-.055.055a.054.054,0,0,0,.055-.055h0c0-.273.109-.437.109-.711H61.412c-.656,4.21-1.367,8.257-2.187,12.3h1.75c.273-1.586.437-3.226.766-4.7.383,1.531,3.007,1.258,4.156.656C68.193,32.618,70,26.712,66.935,25.564Zm-1.422,6.945c-.93.984-3.226.984-3.445-.711a11.106,11.106,0,0,1,.328-2.242c.109-.766.219-1.476.383-2.187.93-1.148,3.664-1.258,3.937.6A6.314,6.314,0,0,1,65.513,32.508Zm45-10.608c-.164,1.312-.328,2.57-.6,3.828-4.32-1.367-6.944,1.8-6.89,5.742a3.073,3.073,0,0,0,.6,2.023,3.969,3.969,0,0,0,4.32.383,6.239,6.239,0,0,0,.6-.6c.109-.164.273-.492.328-.383a9.9,9.9,0,0,0-.164,1.258H110.3a115.916,115.916,0,0,1,1.969-12.194h-1.75Zm-3.882,11.21c-1.2,0-1.75-.711-1.8-1.914-.055-2.133.875-4.484,2.789-4.7a4.621,4.621,0,0,1,2.187.328C109.149,29.227,109.368,33.055,106.633,33.11Zm-15.2-7.546c-.109.492-.219.93-.328,1.367,1.039-.273,4.265-1.039,4.593.328a2.169,2.169,0,0,1-.219,1.312c-2.9-.273-5.3.219-5.906,2.3-.437,1.367.055,2.789.93,3.172a3.969,3.969,0,0,0,4.539-1.258,4.9,4.9,0,0,0-.109,1.312h1.531a22.832,22.832,0,0,1,.437-3.937,17.24,17.24,0,0,0,.492-3.172C97.228,24.743,93.51,25.509,91.432,25.564Zm2.9,6.89c-.93.875-3.445,1.148-3.172-.984.219-1.75,2.133-2.133,4.21-1.859A6.376,6.376,0,0,1,94.33,32.453Z" transform="translate(-38.446 -11.401)" fill="#fff" fill-rule="evenodd"/>
    </g>
  </g>
</svg>
