<svg xmlns="http://www.w3.org/2000/svg" width="74.759" height="38.873" viewBox="0 0 74.759 38.873">
  <path id="Icon_awesome-barcode" data-name="Icon awesome-barcode" d="M0,43.373V4.5H2.628V43.373Zm3.921-.028V4.5H5.256V43.345Zm3.963,0V4.5H9.178V43.345Zm6.55,0V4.5h1.293V43.345Zm5.256,0V4.5h2.586V43.345Zm6.55,0V4.5h1.293V43.345Zm2.628,0V4.5h1.293V43.345Zm2.628,0V4.5H32.79V43.345Zm5.215,0V4.5H39.34V43.345Zm6.55,0V4.5H45.89V43.345Zm5.256,0V4.5h2.628V43.345Zm5.257,0V4.5H56.4V43.345Zm3.921,0V4.5h2.628V43.345Zm6.591,0V4.5h3.921V43.345Zm5.215,0V4.5h1.335V43.345Zm2.628.028V4.5h2.628V43.373Z" transform="translate(0 -4.5)"/>
</svg>
