<svg xmlns="http://www.w3.org/2000/svg" xmlns:xlink="http://www.w3.org/1999/xlink" width="226" height="80.29" viewBox="0 0 226 80.29">
    <defs>
      <clipPath id="clip-path">
        <rect id="Ret창ngulo_515" data-name="Ret창ngulo 515" width="226" height="80.29" transform="translate(0 -11.97)"/>
      </clipPath>
      <clipPath id="clip-path-4">
        <rect id="Ret창ngulo_512" data-name="Ret창ngulo 512" width="222.57" height="52.37" transform="translate(3.49 6.99)"/>
      </clipPath>
    </defs>
    <g id="escrito" transform="translate(113 40.145)">
      <g id="escrito-2" data-name="escrito" transform="translate(-113 -40.145)">
        <g id="Logo_Horizontal_1_" transform="translate(0 11.97)">
          <g id="Grupo_472" data-name="Grupo 472">
            <g id="Grupo_471" data-name="Grupo 471" clip-path="url(#clip-path)">
              <g id="Grupo_470" data-name="Grupo 470" clip-path="url(#clip-path)">
                <g id="Grupo_469" data-name="Grupo 469" opacity="0.97" clip-path="url(#clip-path)">
                  <g id="Grupo_468" data-name="Grupo 468">
                    <g id="Grupo_467" data-name="Grupo 467" clip-path="url(#clip-path-4)">
                      <path id="Caminho_962" data-name="Caminho 962" d="M25.74,58.65,3.49,7.67H14.88L30.83,46.54,46.79,7.67H58.18L35.93,58.65Zm40.08,0V7.67h43.23v9.07H76.11V26.92h29.17v8.51H76.11V49.61h33.63v9.04Zm55.35,0V7.67h10.3V49.58H161v9.07Zm46.8-25.64h0a25.914,25.914,0,0,1,2.11-10.57,24.173,24.173,0,0,1,5.93-8.23,27.021,27.021,0,0,1,9.16-5.33,38,38,0,0,1,23.67,0,26.97,26.97,0,0,1,9.19,5.33,24.014,24.014,0,0,1,5.92,8.23,25.788,25.788,0,0,1,2.12,10.57,26.288,26.288,0,0,1-2.12,10.64,24.443,24.443,0,0,1-5.92,8.34,27.333,27.333,0,0,1-9.19,5.43,37.252,37.252,0,0,1-23.67,0,27.389,27.389,0,0,1-9.16-5.43,24.469,24.469,0,0,1-5.93-8.34,26.486,26.486,0,0,1-2.11-10.64m10.31,0h0a17.131,17.131,0,0,0,1.42,7.11,15.464,15.464,0,0,0,3.92,5.4,17.824,17.824,0,0,0,5.94,3.44,23.6,23.6,0,0,0,14.92,0,17.535,17.535,0,0,0,5.92-3.44,15.877,15.877,0,0,0,3.93-5.4,17.067,17.067,0,0,0,1.43-7.11,16.926,16.926,0,0,0-1.43-7.08,15.4,15.4,0,0,0-3.93-5.3,17.018,17.018,0,0,0-5.92-3.31,24.979,24.979,0,0,0-14.92,0,17.293,17.293,0,0,0-5.94,3.31,15,15,0,0,0-3.92,5.3,16.892,16.892,0,0,0-1.42,7.08" fill="#2ea42f"/>
                    </g>
                  </g>
                </g>
              </g>
            </g>
          </g>
        </g>
      </g>
    </g>
  </svg>
