<?xml version="1.0" encoding="utf-8"?>
<!-- Generator: Adobe Illustrator 25.2.1, SVG Export Plug-In . SVG Version: 6.00 Build 0)  -->
<svg version="1.1" id="Camada_1" xmlns="http://www.w3.org/2000/svg" xmlns:xlink="http://www.w3.org/1999/xlink" x="0px" y="0px"
	 viewBox="0 0 342 430" style="enable-background:new 0 0 342 430;" xml:space="preserve">
<style type="text/css">
	.st0{fill:#1AB109;}
	.st1{fill:#1AB109;fill-opacity:0.97;}
</style>
<g>
	<g id="SvgjsG1403" transform="rotate(0 78.625 69)">
		<g>
			<path class="st0" d="M56.2,128.1c0,88.8,72,160.8,160.7,160.8v-23c-76.1,0-137.8-61.7-137.8-137.8H56.2z"/>
			<path class="st0" d="M216.9,36.3c-50.7,0-91.9,41.1-91.9,91.8c0,50.7,41.1,91.9,91.9,91.9v23c-63.4,0-114.8-51.4-114.8-114.8
				c0-63.4,51.4-114.8,114.8-114.8V36.3z"/>
			<path class="st0" d="M262.9,128.1c0-25.4-20.6-45.9-45.9-45.9c-25.4,0-45.9,20.6-45.9,45.9s20.6,45.9,45.9,45.9v23
				c-38.1,0-68.9-30.8-68.9-68.9c0-38,30.8-68.9,68.9-68.9c38.1,0,68.9,30.8,68.9,68.9L262.9,128.1z"/>
		</g>
	</g>
	<g id="SvgjsG1405" transform="rotate(0 78.625 183.5)">
		<path class="st1" d="M45.4,415.7L14,343.8h16.1l22.5,54.8l22.5-54.8h16.1l-31.4,71.9H45.4z M101.9,415.7v-71.9h61v12.8h-46.5v14.4
			h41.2v12h-41.2v20h47.4v12.8H101.9z M180,415.7v-71.9h14.5v59.1h41.7v12.8H180z M246.1,379.5L246.1,379.5L246.1,379.5
			c0-5.4,1-10.4,3-14.9l0,0l0,0c2-4.5,4.8-8.4,8.4-11.6l0,0l0,0c3.6-3.2,7.9-5.7,12.9-7.5l0,0l0,0c5-1.8,10.6-2.7,16.7-2.7l0,0l0,0
			c6.1,0,11.6,0.9,16.7,2.7l0,0l0,0c5,1.8,9.4,4.3,13,7.5l0,0l0,0c3.6,3.2,6.4,7.1,8.3,11.6l0,0l0,0c2,4.5,3,9.5,3,14.9l0,0l0,0
			c0,5.5-1,10.5-3,15l0,0l0,0c-2,4.6-4.8,8.5-8.3,11.8l0,0l0,0c-3.6,3.3-7.9,5.8-13,7.7l0,0l0,0c-5,1.8-10.6,2.7-16.7,2.7l0,0l0,0
			c-6.1,0-11.7-0.9-16.7-2.7l0,0l0,0c-5-1.8-9.3-4.4-12.9-7.7l0,0l0,0c-3.6-3.3-6.4-7.2-8.4-11.8l0,0l0,0
			C247,390,246.1,385,246.1,379.5z M260.6,379.5L260.6,379.5L260.6,379.5c0,3.7,0.7,7.1,2,10l0,0l0,0c1.3,3,3.2,5.5,5.5,7.6l0,0l0,0
			c2.4,2.1,5.2,3.7,8.4,4.9l0,0l0,0c3.2,1.1,6.7,1.7,10.5,1.7l0,0l0,0c3.8,0,7.3-0.6,10.5-1.7l0,0l0,0c3.2-1.1,6-2.8,8.3-4.9l0,0
			l0,0c2.4-2.1,4.2-4.6,5.6-7.6l0,0l0,0c1.3-3,2-6.3,2-10l0,0l0,0c0-3.7-0.7-7-2-10l0,0l0,0c-1.3-2.9-3.2-5.4-5.6-7.5l0,0l0,0
			c-2.3-2-5.1-3.6-8.3-4.7l0,0l0,0c-3.2-1.1-6.7-1.6-10.5-1.6l0,0l0,0c-3.8,0-7.3,0.5-10.5,1.6l0,0l0,0c-3.2,1.1-6,2.6-8.4,4.7l0,0
			l0,0c-2.4,2-4.2,4.5-5.5,7.5l0,0l0,0C261.3,372.5,260.6,375.8,260.6,379.5z"/>
	</g>
</g>
</svg>
